<svg xmlns="http://www.w3.org/2000/svg" width="1200" height="630" viewBox="0 0 1200 630">
  <defs>
    <linearGradient id="bg" x1="0" y1="0" x2="1" y2="1">
      <stop offset="0" stop-color="#0b0f14"/>
      <stop offset="0.55" stop-color="#070a0f"/>
      <stop offset="1" stop-color="#000000"/>
    </linearGradient>
    <linearGradient id="gold" x1="0" y1="0" x2="1" y2="1">
      <stop offset="0" stop-color="#ffd56a"/>
      <stop offset="0.45" stop-color="#fcba00"/>
      <stop offset="1" stop-color="#d79a00"/>
    </linearGradient>
    <filter id="grain" x="-20%" y="-20%" width="140%" height="140%">
      <feTurbulence type="fractalNoise" baseFrequency="0.8" numOctaves="3" stitchTiles="stitch" />
      <feColorMatrix type="matrix" values="
        1 0 0 0 0
        0 1 0 0 0
        0 0 1 0 0
        0 0 0 0.06 0"/>
    </filter>
    <filter id="glow" x="-40%" y="-40%" width="180%" height="180%">
      <feGaussianBlur stdDeviation="6" result="blur"/>
      <feColorMatrix in="blur" type="matrix" values="
        1 0 0 0 0
        0 1 0 0 0
        0 0 1 0 0
        0 0 0 0.35 0" result="soft"/>
      <feMerge>
        <feMergeNode in="soft"/>
        <feMergeNode in="SourceGraphic"/>
      </feMerge>
    </filter>
    <linearGradient id="streak" x1="0" y1="0" x2="1" y2="0">
      <stop offset="0" stop-color="#ffffff" stop-opacity="0"/>
      <stop offset="0.5" stop-color="#ffffff" stop-opacity="0.08"/>
      <stop offset="1" stop-color="#ffffff" stop-opacity="0"/>
    </linearGradient>
    <style>
      .serif { font-family: Georgia, "Times New Roman", Times, serif; }
      .sans { font-family: ui-sans-serif, system-ui, -apple-system, "Segoe UI", Arial, sans-serif; }
    </style>
  </defs>

  <rect width="1200" height="630" fill="url(#bg)"/>
  <rect width="1200" height="630" filter="url(#grain)" opacity="1"/>

  <!-- subtle diagonal streaks -->
  <g opacity="1">
    <rect x="-200" y="110" width="700" height="26" fill="url(#streak)" transform="rotate(-18 0 0)"/>
    <rect x="260" y="280" width="780" height="22" fill="url(#streak)" transform="rotate(-18 0 0)"/>
    <rect x="680" y="470" width="720" height="18" fill="url(#streak)" transform="rotate(-18 0 0)"/>
  </g>

  <!-- left icon block -->
  <g transform="translate(120,150)">
    <!-- document outline -->
    <path d="M70 20h220l60 60v300c0 18-14 32-32 32H70c-18 0-32-14-32-32V52c0-18 14-32 32-32z"
          fill="none" stroke="url(#gold)" stroke-width="6" filter="url(#glow)"/>
    <!-- folded corner -->
    <path d="M290 20v70h70" fill="none" stroke="url(#gold)" stroke-width="6" filter="url(#glow)"/>

    <!-- lines -->
    <rect x="80" y="120" width="230" height="10" rx="5" fill="#ffffff" opacity="0.14"/>
    <rect x="80" y="155" width="210" height="10" rx="5" fill="#ffffff" opacity="0.12"/>
    <rect x="80" y="190" width="235" height="10" rx="5" fill="#ffffff" opacity="0.10"/>
    <rect x="80" y="225" width="190" height="10" rx="5" fill="#ffffff" opacity="0.10"/>

    <!-- signature line -->
    <rect x="80" y="295" width="235" height="8" rx="4" fill="#ffffff" opacity="0.22"/>
    <!-- pen stroke -->
    <path d="M105 285c22 18 42 12 60-4 14-12 30-6 40 3 12 12 24 10 36-2 10-10 24-14 40 2"
          fill="none" stroke="url(#gold)" stroke-width="5" stroke-linecap="round" filter="url(#glow)"/>
  </g>

  <!-- right text -->
  <g transform="translate(520,190)">
    <text x="0" y="0" class="serif" font-size="54" fill="#ffffff" letter-spacing="0.5">Secure Document Signing</text>
    <text x="0" y="44" class="sans" font-size="24" fill="#d7dde6" opacity="0.95">Review &amp; e-sign in minutes</text>
  </g>

  <!-- bottom badges -->
  <g transform="translate(120,560)">
    <rect x="0" y="-30" width="240" height="44" rx="12" fill="#0f141a" opacity="0.65" stroke="#2a3441" stroke-opacity="0.8"/>
    <text x="18" y="0" class="sans" font-size="18" fill="url(#gold)" letter-spacing="1.6">M10 DJ COMPANY</text>
  </g>

  <g transform="translate(820,560)">
    <rect x="0" y="-30" width="260" height="44" rx="12" fill="#0f141a" opacity="0.65" stroke="#2a3441" stroke-opacity="0.8"/>
    <!-- lock -->
    <g transform="translate(16,-18)">
      <rect x="10" y="18" width="26" height="22" rx="6" fill="none" stroke="#d7dde6" stroke-width="2" opacity="0.95"/>
      <path d="M16 18v-6c0-7 14-7 14 0v6" fill="none" stroke="#d7dde6" stroke-width="2" opacity="0.95"/>
      <circle cx="23" cy="28.5" r="2.6" fill="#d7dde6" opacity="0.95"/>
    </g>
    <text x="58" y="0" class="sans" font-size="16" fill="#d7dde6" opacity="0.95">Encrypted " Legally binding</text>
  </g>
</svg>
