<?xml version="1.0" encoding="UTF-8"?>
<svg width="156px" height="26px" viewBox="0 0 156 26" version="1.1" xmlns="http://www.w3.org/2000/svg" xmlns:xlink="http://www.w3.org/1999/xlink">
    <title>Group 15</title>
    <defs>
        <filter id="filter-1">
            <feColorMatrix in="SourceGraphic" type="matrix" values="0 0 0 0 0.466667 0 0 0 0 0.466667 0 0 0 0 0.466667 0 0 0 1.000000 0"></feColorMatrix>
        </filter>
        <polygon id="path-2" points="0 0.504172918 108.194844 0.504172918 108.194844 25.832526 0 25.832526"></polygon>
        <polygon id="path-4" points="0.659037124 0.234069143 18.8970833 0.234069143 18.8970833 18.0495049 0.659037124 18.0495049"></polygon>
    </defs>
    <g id="Pages" stroke="none" stroke-width="1" fill="none" fill-rule="evenodd">
        <g id="2.-Public-Home" transform="translate(-723.000000, -17.000000)">
            <g id="Group-15" transform="translate(40.000000, 17.000000)" filter="url(#filter-1)">
                <g transform="translate(683.000000, 0.000000)">
                    <g id="Group-3">
                        <mask id="mask-3" fill="white">
                            <use xlink:href="#path-2"></use>
                        </mask>
                        <g id="Clip-2"></g>
                        <path d="M85.8183333,17.3478906 C85.4518229,17.6530469 84.7075,17.850026 84.3119271,17.6821094 C83.9244271,17.5158073 83.7613542,16.8247656 83.5514583,16.455026 C84.1036458,13.703776 85.153125,11.5273177 87.4571354,10.1726823 C87.8058854,9.96601563 88.4710938,9.97408854 88.8182292,10.1759115 C89.1169271,10.3486719 89.3688021,10.9832031 89.2961458,11.3448698 C88.8166146,13.7247656 87.6944792,15.7833594 85.8183333,17.3478906 M46.8164583,17.1686719 C46.3433854,17.5658594 45.7346875,18.043776 45.1066146,17.5852344 C44.7078125,17.2946094 44.5092188,16.7327344 44.2589583,16.3516927 C44.91125,13.7199219 45.8105729,11.5176302 48.1420313,10.2647135 C48.534375,10.0548177 49.3222917,9.96440104 49.5451042,10.1936719 C49.8873958,10.5424219 50.1295833,11.2770573 50.0084896,11.7404427 C49.4595313,13.8313281 48.5117708,15.7413802 46.8164583,17.1686719 M34.5359375,16.9652344 C34.3696354,17.121849 34.1888021,17.2736198 33.9918229,17.3866406 C32.7179167,18.121276 31.9154688,17.664349 31.9202907,15.8608594 C32.2884375,13.8151823 33.3153125,11.7727344 35.3222396,10.3615885 C35.7501042,10.061276 36.5961458,9.97247396 37.0595313,10.1904427 C37.7215104,10.5036719 37.6214063,11.281901 37.4470313,11.9745573 C36.9513542,13.9217448 35.9939063,15.5863802 34.5359375,16.9652344 M60.4031771,10.2065885 C60.7260938,10.0096094 61.2233854,10.100026 61.6383333,10.0580469 C61.6173438,10.4520052 61.7126042,10.902474 61.5576042,11.231849 C60.6954167,13.0401823 59.0275521,13.781276 57.0755208,14.4448698 C57.8634375,12.6284635 58.8321875,11.1624219 60.4031771,10.2065885 M100.215573,18.4813281 C101.868906,15.5363281 103.447969,12.7269531 105.088385,9.81101563 C104.285938,9.81101563 103.640104,9.76419271 103.007188,9.83200521 C102.755313,9.85945313 102.453385,10.088724 102.311302,10.313151 C101.571823,11.475651 100.946979,12.7172656 100.14776,13.8361719 C99.0530729,15.3651823 97.9083333,16.8845052 96.1435938,17.733776 C95.9127083,17.8451823 95.5155208,17.9129948 95.3589063,17.7902865 C95.1877604,17.656276 95.1554688,17.2800781 95.1554688,17.0088281 C95.1554688,16.7940885 95.2652604,16.559974 95.3798958,16.366224 C96.1678125,15.0309635 96.9638021,13.6989323 97.7694792,12.374974 C98.2732292,11.5499219 98.7995833,10.7377865 99.3840625,9.80940104 C98.5913021,9.80940104 97.9503125,9.85299479 97.3173958,9.79486979 C96.8088021,9.74966146 96.506875,9.96278646 96.2776042,10.359974 C95.4008854,11.8760677 94.5677604,13.421224 93.6361458,14.905026 C92.7529688,16.3097135 91.4403125,17.2736198 89.9775,18.013099 C89.7708333,18.1180469 89.3526563,18.0744531 89.1960417,17.9259115 C89.0604167,17.7967448 89.0636458,17.3817969 89.1621354,17.1654427 C89.6142188,16.1789323 90.0630729,15.1827344 90.6233333,14.2559635 C91.5065104,12.793151 92.4801042,11.3836198 93.4165625,9.94986979 C93.3713542,9.87075521 93.3261458,9.79164063 93.2809375,9.71252604 C92.2589063,10.1742969 90.9801563,9.47679688 90.1325,10.6409115 C89.3817188,9.61403646 89.0830208,9.41059896 87.9382813,9.46710938 C85.5971354,9.58013021 83.8275521,10.8314323 82.5084375,12.626849 C81.9175,13.4309115 81.3088021,13.4179948 80.5951563,13.2678385 C79.8621354,13.111224 79.7394271,12.4992969 79.8120833,11.8276302 C79.844375,11.5370052 79.9025,11.2076302 79.7991667,10.9557552 C79.5957292,10.4455469 79.3777604,9.87236979 78.9854167,9.53492188 C78.7739063,9.35247396 78.1361458,9.50101563 77.7825521,9.68023438 C77.1254167,10.0176823 77.1948438,10.7894531 77.4225,11.2399219 C77.8116146,12.0133073 77.5,12.6397656 77.2755729,13.277526 C77.0301563,13.9734115 76.7023958,14.6644531 76.2809896,15.2683073 C75.4188021,16.5050781 74.4936458,17.7063281 72.9517188,18.1761719 C72.1202083,18.4296615 71.5696354,18.1083594 71.7585417,17.2897656 C72.0104167,16.1950781 72.4318229,15.098776 72.9920833,14.1235677 C73.8252083,12.6720573 74.8423958,11.3254948 75.8676563,9.80940104 C75.0361458,9.80940104 74.3628646,9.86268229 73.7041146,9.79325521 C73.1745313,9.73835938 72.9000521,10.0015365 72.6707813,10.3745052 C71.9377604,11.5757552 71.2903125,12.8367448 70.4765625,13.9782552 C69.5820833,15.2311719 68.5907292,16.4275781 67.5267188,17.5367969 C67.2490104,17.8241927 66.5434375,17.6998698 66.0316146,17.7660677 C65.9815625,17.315599 65.7490625,16.7827865 65.9121354,16.4308073 C66.5063021,15.137526 67.1844271,13.8749219 67.9239063,12.657526 C68.5067708,11.696849 69.2301042,10.816901 69.9324479,9.84169271 C67.1634375,9.72059896 67.1634375,9.72059896 65.7329167,11.9245052 C65.6069792,12.1166406 65.4826563,12.308776 65.3696354,12.5089844 C64.8190625,13.479349 64.4590104,14.6483073 63.6807813,15.378099 C62.65875,16.3403906 61.3945313,17.1670573 60.0867188,17.675651 C58.0329688,18.4748698 56.7735938,17.1299219 56.9124479,15.4798177 C56.9528125,14.9841406 57.0868229,14.8291406 57.6034896,14.7096615 C59.4150521,14.293099 61.2589063,13.9314323 62.833125,12.8286719 C63.66625,12.2441927 64.1377083,11.3707031 63.9504167,10.6586719 C63.7582813,9.93210938 62.9477604,9.43320313 61.8466146,9.46388021 C58.8531771,9.54945313 56.5733854,11.0138802 55.1396354,13.5261719 C54.3727083,14.8695052 53.5734896,16.0723698 52.3254167,16.9490885 C51.3711979,17.6207552 50.4315104,18.353776 49.1511458,18.5927344 C50.8383854,15.6267448 52.4675,12.7657031 54.095,9.90466146 C54.0465625,9.84492188 54.0013542,9.78518229 53.9561458,9.72705729 C52.9970833,10.1629948 51.7603125,9.48164063 50.9449479,10.6215365 C50.4589583,9.87721354 49.8405729,9.41544271 48.8879688,9.44611979 C45.8186458,9.54622396 43.8197917,11.289974 42.5361979,13.8361719 C41.6627083,15.5702344 40.4388542,16.8360677 38.8210417,17.7789844 C38.4125521,18.0179427 37.8829688,18.0502344 37.4082813,18.1777865 C37.4728646,17.6966406 37.5374479,17.2171094 37.6052604,16.7375781 C37.6084896,16.7101302 37.6343229,16.687526 37.6504688,16.6633073 C39.9092708,12.994974 42.1680729,9.32502604 44.4333333,5.66153646 C45.2567708,4.32789063 46.1011979,3.00716146 47.0634896,1.47815104 C46.1125,1.57179688 45.3972396,1.59440104 44.7013542,1.72841146 C44.3526042,1.79622396 43.923125,1.98513021 43.7374479,2.25960938 C43.0141146,3.33169271 42.3795833,4.46028646 41.7063021,5.56466146 C40.6648958,7.27127604 39.6186458,8.97304688 38.5223438,10.7603906 C37.9491667,9.87559896 37.23875,9.39768229 36.2570833,9.45903646 C33.4283333,9.63502604 31.4746875,11.1624219 30.1652604,13.5584635 C29.1722917,15.3732552 27.7740625,16.7424219 26.00125,17.7499219 C25.7219271,17.908151 25.3376563,17.8790885 25.0002083,17.935599 C25.0244271,17.5529427 24.9243229,17.1008594 25.0938542,16.8021615 C26.04,15.126224 27.0523438,13.4858073 28.0420833,11.8357031 C28.4311979,11.1866406 28.8267708,10.5408073 29.2707813,9.81101563 C28.8622917,9.81101563 28.5539063,9.72059896 28.3423958,9.82554688 C27.6109896,10.1888281 26.5728125,9.56559896 26.0464583,10.6392969 C25.6218229,11.5127865 24.9969792,12.2861719 24.5352083,13.1451302 C23.3823958,15.2941406 21.8227083,17.0201302 19.5945833,18.071224 C19.3120313,18.2052344 18.7792188,18.3004948 18.6452083,18.1551823 C18.4369271,17.927526 18.3384375,17.4447656 18.4207813,17.1283073 C18.6452083,16.2741927 18.9939583,15.4523698 19.2894271,14.6160156 C19.9675521,12.7011198 20.2420313,10.9880469 18.4595313,9.72059896 C19.0633854,9.57851563 19.6720833,9.47195313 20.2581771,9.28304688 C20.8539583,9.09091146 21.4319792,8.83257813 22.0083854,8.58070313 C23.5777604,7.89934896 24.5997917,5.82945313 23.9507292,4.08893229 C23.6229688,3.21221354 22.8867188,2.48726563 22.3070833,1.65091146 C22.920625,1.48299479 23.695625,1.26986979 24.6466146,1.00992188 C24.4302604,0.859765625 24.2720313,0.661171875 24.1557813,0.683776042 C23.424375,0.821015625 22.7107292,1.04544271 21.9793229,1.16492188 C21.5191667,1.23919271 21.0299479,1.23596354 20.5665625,1.17138021 C19.0294792,0.963098958 17.5004688,0.548151042 15.9601563,0.509401042 C12.6696354,0.428671875 9.551875,1.28440104 6.72958333,2.97002604 C4.57411458,4.25523438 2.85458333,5.96184896 2.38151042,8.61783854 C2.14578125,9.94018229 2.71088542,11.6145052 3.86854167,12.3120052 C5.63651042,13.3808594 7.51911458,13.3146615 9.20796875,12.3007031 C11.6088542,10.855651 12.3111979,8.47575521 12.1836458,5.79877604 C12.1755729,5.64700521 12.0028125,5.50330729 11.9075521,5.35638021 C11.8284375,5.38382813 11.7493229,5.41127604 11.6702083,5.44033854 C11.6702083,6.01835938 11.7089583,6.59960938 11.6621354,7.17601563 C11.5022917,9.22653646 10.1525,11.727526 7.78390625,12.3782031 C6.35338542,12.7721615 4.62416667,11.7759635 4.45625,10.3858073 C4.165625,7.93809896 5.12145833,5.88919271 6.89588542,4.36018229 C8.11005208,3.31393229 9.59869792,2.49372396 11.0921875,1.87856771 C13.9629167,0.696692708 16.9240625,0.641796875 20.0079167,1.84466146 C16.9272917,3.24773438 15.1609375,5.77778646 13.52375,8.41440104 C12.2191667,10.5117448 11.0550521,12.696276 9.70364583,14.7597135 C8.66546875,16.346849 7.35119792,17.6804948 5.37333333,18.1535677 C3.68932292,18.5572135 1.95041667,17.9759635 2.00692708,16.2709635 C2.36052083,15.835026 2.770625,15.3571094 2.80453125,14.854974 C2.85619792,14.0832031 2.10541667,13.761901 1.51286458,13.7522135 C1.09630208,13.7457552 0.50859375,14.138099 0.282552083,14.5207552 C-0.389114583,15.6622656 0.196979167,17.2913802 1.39015625,17.946901 C2.75286458,18.6928385 4.15432292,18.8494531 5.72046875,18.6508594 C8.55567708,18.2924219 10.7757292,16.947474 12.3467188,14.6838281 C13.9822917,12.328151 15.3789063,9.80617188 16.85625,7.34393229 C17.9347917,5.54528646 19.1941667,3.90809896 20.8394271,2.56638021 C21.9696354,3.37851563 21.9873958,4.52325521 21.6677083,5.60664063 C20.8878646,8.23518229 19.0536979,9.50101563 16.2265625,9.39606771 C16.4267708,9.61403646 16.6156771,9.75773438 16.8223438,9.79809896 C17.9396354,10.0144531 18.2270313,10.4633073 17.8363021,11.5741406 C17.2954167,13.1128385 16.6673438,14.6208594 16.15875,16.1692448 C15.8148438,17.2235677 16.2136458,18.7945573 17.7006771,18.7961719 C18.2819271,18.7961719 18.9390625,18.8817448 19.4298958,18.6492448 C20.5794792,18.1035156 21.6483333,17.3882552 22.7010417,16.7714844 C22.9222396,18.2811198 23.4566667,18.9511719 24.6288542,18.7558073 C25.4232292,18.6234115 26.2321354,18.2859635 26.9151042,17.8532552 C27.7966667,17.2929948 28.5619792,16.5454427 29.4290104,15.835026 C29.4419271,16.0497656 29.469375,16.1676302 29.4516146,16.2790365 C29.1577604,18.1761719 30.9757813,19.2498698 32.4660417,18.6153385 C33.4202604,18.2084635 34.3470313,17.7386198 35.2318229,17.3236719 C35.3286979,18.3650781 36.0940104,19.1901302 37.1225,18.9221094 C38.1219271,18.6605469 39.0890625,18.1729427 39.9835417,17.6417448 C40.6842708,17.2267969 41.2526042,16.5922656 41.9291146,16.0126302 C41.9436458,16.2144531 41.9727083,16.3339323 41.9549479,16.4421094 C41.6933854,18.0082552 43.3677083,19.233724 44.7853125,18.6266406 C45.5748438,18.2875781 46.3772917,17.9791927 47.1732813,17.656276 C47.2378646,17.7047135 47.3040625,17.7515365 47.3702604,17.799974 C45.7815104,19.7616927 44.29125,21.8138281 42.5733333,23.6528385 C41.4964063,24.805651 40.0529688,25.5548177 38.3350521,25.4902344 C37.0240104,25.4417969 35.9583854,24.5311719 35.7969271,23.2265885 C35.6613021,22.1528906 36.4508333,20.5867448 37.6972917,20.5286198 C37.9459375,20.5173177 38.1848958,20.338099 38.4270833,20.2363802 C38.4157813,20.1653385 38.4044792,20.0942969 38.3915625,20.0232552 C37.6504688,20.0232552 36.9061458,19.9845052 36.1666667,20.0329427 C35.1091146,20.1023698 33.8545833,21.1373177 33.6882813,22.0140365 C33.3944271,23.5414323 33.9417708,24.8201823 35.1510938,25.4321094 C35.4223438,25.569349 35.6968229,25.7001302 35.9713021,25.832526 L40.5486458,25.832526 C41.9953125,25.1204948 43.496875,24.4988802 44.8757292,23.6722135 C46.4160417,22.7454427 47.4203125,21.2503385 48.4278125,19.7907552 C48.5828125,19.5679427 48.7878646,19.303151 49.0252083,19.2288802 C51.0805729,18.5765885 52.7226042,17.2816927 54.4663542,15.7510677 C54.4663542,16.1805469 54.4276042,16.4792448 54.4728125,16.7666406 C54.6827083,18.0696094 56.4539063,19.0528906 57.7923958,18.9172656 C60.004375,18.6944531 61.8401563,17.7563802 63.530625,16.338776 C63.7615104,18.082526 64.4105729,18.9253385 65.584375,18.749349 C66.4271875,18.6217969 67.2764583,18.2310677 68.0143229,17.7789844 C68.6666146,17.3785677 69.16875,16.7311198 69.6676563,16.2580469 C69.8000521,16.7036719 69.8355729,17.3495052 70.156875,17.7902865 C70.8802083,18.7848698 71.9684375,18.8930469 73.1228646,18.7122135 C76.2260938,18.2278385 78.4413021,16.3791406 79.6748438,13.4551302 C80.2851563,13.6295052 80.8970833,13.8054948 81.53,13.9863281 C81.4121354,14.544974 81.1877083,15.1520573 81.1893229,15.757526 C81.1909375,16.474401 81.2119271,17.2849219 81.5364583,17.8903906 C82.2597917,19.2401823 83.7209896,19.1223177 85.153125,18.4425781 C85.7408333,18.1632552 86.2429688,17.7047135 86.7773958,17.3317448 C87.3683333,18.904349 88.5405208,19.3935677 90.1018229,18.5636719 C91.1060938,18.0308594 92.0231771,17.3285156 92.9886979,16.695599 C92.9531771,16.6520052 93.0113021,16.6891406 93.0129167,16.7295052 C93.0258333,17.423776 92.9192708,18.1890885 93.6845833,18.5782031 C94.7163021,19.1029427 95.67375,18.6266406 96.5391667,18.140651 C97.2867188,17.722474 97.9196354,17.1057031 98.7107813,16.6261719 C97.9922917,17.8096615 97.2996354,19.0109115 96.5472396,20.1734115 C95.4267188,21.9058594 94.1980208,23.5608073 92.3751563,24.6248177 C91.2401042,25.2867969 90.0582292,25.6823698 88.6777604,25.3497656 C87.4668229,25.0591406 86.6740625,23.7271094 86.8791146,22.4645052 C87.0454167,21.4408594 87.5136458,20.3849219 89.1815104,20.3671615 C89.2816146,20.3655469 89.3801042,20.3138802 89.5141146,20.2751302 C88.4097396,19.3580469 85.6584896,20.1863281 84.9642188,21.3229948 C84.2215104,22.5371615 84.7510938,24.4908073 86.0879688,25.2771094 C86.4496354,25.4886198 86.83875,25.6500781 87.2149479,25.832526 L91.4403125,25.832526 C92.41875,25.464401 93.4633854,25.2157552 94.3578646,24.7023177 C96.3438021,23.5591927 97.9309375,21.9559115 99.1935417,20.0345573 C99.4389583,19.6664323 99.7279688,19.1965885 100.100938,19.0625781 C103.375313,17.8936198 105.674479,15.5363281 107.762135,12.9077865 C107.962344,12.6559115 108.05276,12.3152344 108.194844,12.0149219 C108.120573,11.9632552 108.049531,11.9115885 107.976875,11.8599219 C105.751979,14.420651 103.683698,17.1702865 100.215573,18.4813281" id="Fill-1" fill="#231F20" mask="url(#mask-3)"></path>
                    </g>
                    <path d="M129.077883,1.67184324 C127.501502,1.54560162 125.926755,1.60472744 124.368361,2.08732196 C120.505898,3.28102429 117.452884,5.57414725 115.062147,8.67585572 C113.526646,10.6669576 112.628893,12.9520906 113.188149,15.5552246 C113.551175,17.2475014 114.499621,18.4667716 116.180659,19.0340599 C117.681819,19.5406243 119.233672,19.4287647 120.736468,19.0500399 C123.527842,18.345324 125.838451,17.054144 126.487646,14.0003754 C126.958598,11.7823582 125.367499,10.0932774 122.93261,10.4656102 C120.8771,10.7820133 119.693178,12.0987612 118.82813,13.8773297 C119.029266,13.7462941 119.259836,13.6424245 119.428267,13.479429 C119.979347,12.9377086 120.473193,12.3368625 121.055342,11.831896 C121.835357,11.1527481 122.860659,11.0616624 123.58017,11.3940454 C124.149237,11.6593126 124.559685,13.131066 124.410877,13.810214 C123.990618,15.6958482 123.081418,17.2810593 121.27283,18.2142884 C119.554182,19.0979797 117.864967,19.2641712 116.663058,17.8355636 C115.820903,16.8320227 115.533099,15.6143504 115.719518,14.3695122 C115.99424,12.5366119 116.564943,10.7868072 117.621315,9.2047921 C119.949912,5.72435879 122.842671,2.98859119 127.158099,2.03778411 C128.485923,1.74535101 130.042682,2.60826836 129.939661,3.67572908 C129.808841,5.01964295 128.750833,7.12580048 126.795073,7.62757094 C126.119714,7.80015441 125.537565,7.80175241 124.989756,7.33513784 C124.401066,6.83496538 124.335656,6.21174729 124.477922,5.5246094 C124.513898,5.35042794 124.549873,5.17624647 124.620189,4.83267753 C123.912126,5.31207605 123.817281,5.86658035 123.91049,6.42268264 C124.036405,7.17853432 124.4305,7.78896845 125.213785,8.08299954 C126.770544,8.66786575 129.485061,8.06701959 130.595396,6.83656337 C131.504596,5.82982646 131.844728,4.66488804 131.383587,3.3433461 C131.009115,2.2694934 130.109727,1.75334098 129.077883,1.67184324" id="Fill-4" fill="#231F20"></path>
                    <g id="Group-8" transform="translate(135.625000, 0.807292)">
                        <mask id="mask-5" fill="white">
                            <use xlink:href="#path-4"></use>
                        </mask>
                        <g id="Clip-7"></g>
                        <path d="M16.898875,0.396380208 C15.4893437,0.213932292 13.9554896,0.120286458 12.6056979,0.473880208 C8.11392708,1.65575521 4.53439583,4.25200521 2.02371875,8.18835938 C0.728822917,10.216276 0.349395833,12.4799219 0.911270833,14.8404427 C1.18252083,15.9851823 1.88163542,16.8667448 2.93757292,17.4221615 C4.11298958,18.0421615 5.35783333,18.1228906 6.67694792,18.0017969 C9.00517708,17.7870573 11.047625,17.0491927 12.6622083,15.2909115 C13.7633542,14.0928906 14.2558021,12.618776 13.8650729,11.126901 C13.35325,9.18132813 11.5626771,8.53388021 9.37814583,9.35408854 C7.90241667,9.90789063 7.03215625,11.1333594 6.16996875,12.3507552 C6.22163542,12.425026 6.27007292,12.4976823 6.320125,12.5719531 C6.53809375,12.433099 6.79319792,12.3313802 6.9691875,12.1505469 C7.4729375,11.630651 7.92017708,11.0542448 8.43522917,10.5440365 C9.10366667,9.88044271 10.1014792,9.67861979 10.8199687,10.022526 C11.6434062,10.418099 11.80325,11.1478906 11.822625,11.9745573 C11.88075,14.3140885 10.0821042,16.5066927 8.122,17.2623177 C5.56934375,18.2472135 3.92569792,17.0491927 3.4623125,15.1149219 C3.22496875,14.1235677 3.30408333,12.9982031 3.48653125,11.9777865 C3.90470833,9.63664063 5.09304167,7.65231771 6.6010625,5.82460938 C8.71455208,3.26065104 11.1897083,1.29731771 14.5205937,0.596588542 C15.7315312,0.339869792 17.4446042,1.11164063 17.2718437,2.43882813 C17.0490312,4.18419271 15.8187187,5.78263021 14.0216875,6.31544271 C12.7784583,6.68195313 11.4641875,5.61794271 11.9711667,4.26007813 C12.0502812,4.04856771 12.0244479,3.79669271 12.0599687,3.46247396 C11.8210104,3.59164063 11.6175729,3.63361979 11.5481458,3.75471354 C11.1009062,4.52971354 11.5497604,6.08455729 12.3505937,6.53179688 C13.8602292,7.37622396 17.2347083,6.93544271 18.4601771,4.74606771 C19.2174167,3.39627604 19.1641354,0.690234375 16.898875,0.396380208" id="Fill-6" fill="#231F20" mask="url(#mask-5)"></path>
                    </g>
                    <path d="M152.176496,16.1458333 C151.452658,16.1458333 150.969172,16.6263141 150.963615,17.3456465 C150.956669,18.0663676 151.442932,18.564901 152.155656,18.5676784 C152.921174,18.5718444 153.376873,18.1413559 153.385209,17.4053594 C153.396323,16.5957633 152.961465,16.1458333 152.176496,16.1458333" id="Fill-9" fill="#231F20"></path>
                    <path d="M129.507084,16.1458333 C128.798482,16.1430681 128.353869,16.6207599 128.359427,17.3803454 C128.364984,18.0885512 128.809597,18.5620771 129.477906,18.5676317 C130.268484,18.5745749 130.775621,18.1093808 130.781179,17.3706249 C130.788126,16.631869 130.286547,16.1486227 129.507084,16.1458333" id="Fill-11" fill="#231F20"></path>
                    <path d="M30.1222372,7.265625 C31.0443718,7.25610284 31.4722423,6.8466501 31.4840456,6.07535541 C31.4973243,5.25010182 31.1092901,4.84858422 30.2933854,4.84382314 C29.393382,4.83747503 29.0850202,5.24375372 29.062889,6.3054742 C29.045184,7.26245095 29.6353501,7.24975474 30.1222372,7.265625" id="Fill-13" fill="#231F20"></path>
                </g>
            </g>
        </g>
    </g>
</svg>