<?xml version="1.0" encoding="UTF-8"?>
<svg width="119px" height="100px" viewBox="0 0 119 100" version="1.1" xmlns="http://www.w3.org/2000/svg" xmlns:xlink="http://www.w3.org/1999/xlink">
    <title>LogoWhite1</title>
    <defs>
        <polygon id="path-1" points="0 0 24.5353213 0 24.5353213 17.5282341 0 17.5282341"></polygon>
        <polygon id="path-3" points="0 0 7.72104001 0 7.72104001 3.79243422 0 3.79243422"></polygon>
        <polygon id="path-5" points="0 0 4.2610874 0 4.2610874 2.67253666 0 2.67253666"></polygon>
    </defs>
    <g id="Pages" stroke="none" stroke-width="1" fill="none" fill-rule="evenodd">
        <g id="2.-Public-Home-1" transform="translate(-741, -23)">
            <g id="LogoWhite1" transform="translate(741, 23)">
                <path d="M96.4679255,90.6225917 C97.1267644,91.4070057 97.8087033,92.1752005 97.0304329,93.4815741 C98.1832167,92.4718132 97.9487772,91.5625614 96.4679255,90.6225917 M84.6714898,56.6106781 C83.4511265,55.2934917 82.8721543,53.7671775 83.1719616,51.9545718 C82.4701176,53.7509584 83.1402607,55.8073418 84.6714898,56.6106781 M98.5867279,95.5738362 C97.1159517,96.342031 95.637066,96.899132 93.9728896,96.1041511 C95.2507569,97.3171421 97.3363838,97.0647633 98.5867279,95.5738362 M85.0622223,70.6089775 C84.5137223,72.5913921 83.3304663,74.2521281 82.6099457,76.1731068 C82.884933,75.8831292 83.165818,75.5983122 83.4339244,75.3021911 C85.6969783,72.801503 88.0981402,70.4109081 89.5239453,67.2688289 C91.5786085,62.7410009 92.1816636,58.0644979 91.0318287,53.2019669 C90.9362344,52.79821 90.7165395,52.4050201 90.4811171,52.0563097 C89.3708469,50.41253 88.0647191,50.40098 87.0955058,52.1371594 C86.7084595,52.8304024 86.6502182,53.7457978 86.609179,54.568302 C86.5976291,54.7990554 87.1790587,55.059298 87.4886958,55.3062704 C87.61894,54.9619834 87.8474816,54.6201539 87.8555912,54.2729181 C87.8668954,53.7951923 87.5530806,53.2712667 87.66686,52.8436726 C87.8160264,52.2821482 88.1411454,51.5375447 88.5876617,51.3556944 C88.9587347,51.2048077 89.7689518,51.6191316 90.1154504,52.0174822 C91.2045866,53.2697922 91.2593874,55.5827321 90.3570165,56.640413 C89.2641942,57.9214751 87.1955235,58.1728709 85.5628023,57.2243001 C85.4362442,57.1508227 85.3050171,57.0857007 84.9361558,56.8886142 C85.3490052,57.3808389 85.592783,57.6715537 86.02136,58.1824549 C84.4721916,58.2642875 83.1940786,58.461374 81.9395569,58.3620935 C80.6835607,58.2623216 79.6846125,56.7251946 79.3938977,54.9659153 C79.128003,53.3558025 79.4951441,52.076215 80.9877915,51.2023503 C81.8717316,50.6845683 82.6876008,50.0505495 83.7533913,49.3182332 C83.7025223,49.9517605 83.6754905,50.2864635 83.6386289,50.7467414 C84.5798274,49.3659075 85.6470924,48.2976595 87.1134451,47.6796141 C91.1741143,45.9685006 95.8609385,48.3273945 97.1412633,52.748324 C98.1753529,56.319226 97.55485,59.8046092 96.52887,63.2514106 C95.4269551,66.9535397 93.5396434,70.2273375 90.9844002,73.1204783 C90.6715684,73.4748408 90.3857685,73.8532861 90.2110447,74.3700851 C90.7123619,74.1843029 91.2055695,73.9700144 91.7184367,73.8260085 C91.9459954,73.7623609 92.3561416,73.7537599 92.4301105,73.8749115 C92.5438898,74.0616768 92.5293909,74.4342242 92.4109425,74.6342596 C92.1322691,75.1051046 91.7803641,75.538105 91.4215783,75.9551321 C90.0373039,77.564262 88.1885739,78.4555745 86.2781622,79.2490809 C85.916919,79.3992303 85.5672257,79.5771488 85.2755279,79.9234017 C86.1004895,79.7671087 86.9242225,79.6051636 87.7504128,79.4572258 C88.1111646,79.3925953 88.4765855,79.3245242 88.840532,79.3213296 C89.0268057,79.3196094 89.2145539,79.4572258 89.4015649,79.5316862 C89.3116227,79.7383567 89.2794303,80.036198 89.1216628,80.1364615 C88.2974384,80.6611243 87.4769001,81.2167509 86.5877993,81.6089579 C85.1870601,82.2267576 83.7317658,82.7202109 82.3027661,83.2748545 C82.1405752,83.3377649 81.9995183,83.4552304 81.8759093,83.7555292 C82.3266032,83.7184219 82.7772972,83.6803317 83.2282369,83.6449446 C83.9603075,83.5871948 84.6921323,83.5009387 85.42494,83.4925835 C85.6552019,83.4898803 86.014725,83.646419 86.0857449,83.8226173 C86.1638914,84.0160176 86.0584673,84.4251809 85.8913616,84.5495272 C85.3846381,84.9267438 84.8376126,85.282335 84.2544627,85.5165287 C83.3363642,85.88539 82.375752,86.1483358 81.4330791,86.4562527 C81.4502811,86.5683118 81.4674832,86.680371 81.4846853,86.7926759 C82.0884776,86.7926759 82.7143868,86.8973627 83.2926218,86.7757195 C87.4292258,85.9070155 91.6262828,85.6315368 95.8257972,85.7379438 C98.2581685,85.7996255 100.761314,86.0458607 103.078923,86.7297655 C104.99425,87.2947303 106.814473,88.4482513 108.443754,89.6550987 C111.03119,91.571654 113.781553,92.9937729 116.925599,93.6875074 C117.458125,93.8049729 118.363199,93.7781868 118.245242,94.6463994 C118.129497,95.4996216 117.299375,95.1295315 116.786262,95.130023 C114.125595,95.1322347 111.529312,94.8307072 109.24193,93.2232975 C109.523061,93.5634068 109.842036,93.8794332 110.077704,94.2485403 C110.550024,94.9882289 110.253902,95.5672011 109.390605,95.6770485 C108.228237,95.8247405 107.376243,95.2954085 106.682509,94.4335853 C106.47633,94.1775203 106.304309,93.8941778 105.99713,93.4506104 C106.04333,94.5704646 106.681772,95.776329 105.063549,96.0350971 C104.03118,96.2002369 103.641676,95.8534925 102.939341,94.0544027 C102.77887,94.4987074 102.739551,95.0334457 102.451785,95.3010606 C102.051469,95.6731166 101.423593,96.1122606 100.96823,96.0412407 C100.249184,95.9289358 100.246727,95.1769601 100.364438,94.5267222 C100.45438,94.0303199 100.516308,93.5287569 100.616817,92.8539447 C99.7712126,93.7413252 99.5669996,94.3205432 99.5819899,95.5175608 C99.6016494,97.0972015 98.1276786,98.7606407 96.4593245,99.0407885 C94.6764538,99.3403501 92.8439429,98.2460534 92.3305843,96.5526334 C92.203289,96.1326574 92.1504541,95.6900729 92.0157866,95.0204213 C92.5343058,95.2290577 92.8240377,95.345786 93.1167184,95.4634972 C93.8271635,94.0241763 95.6036449,94.6734312 96.7640467,93.5609494 C95.5166516,94.1966884 94.8511776,93.8322504 94.2301832,92.8419032 C93.2644104,91.3023188 91.6191562,90.8980704 89.9218043,90.7665975 C89.2219262,90.7122882 88.507795,90.8405664 87.8084084,90.7845368 C87.3783569,90.7501327 86.8849035,90.6191513 86.5654366,90.3554683 C86.2801282,90.1198001 86.1946094,89.64232 86.0211143,89.2714927 C86.3585204,89.1879399 86.6915032,89.0653138 87.0338242,89.027715 C88.897053,88.8227647 90.7590532,88.7283991 92.6038513,89.1994898 C92.7299178,89.2316823 92.8788385,89.1746697 93.0171922,89.0920998 C91.0726222,88.5239404 89.132967,88.2111086 87.0920654,88.6217464 C86.0587131,88.8296455 84.9636791,88.8001563 83.899363,88.7718958 C80.3734322,88.6782674 76.846764,88.576038 73.3247651,88.3924675 C71.9903767,88.3226762 70.6088055,88.2010331 69.3535466,87.7862177 C67.4642689,87.1622744 67.3037982,85.437645 68.7588468,84.0580398 C70.7582177,82.1623727 72.6791963,80.1831528 74.6161483,78.2223637 C75.5863445,77.240126 76.5078835,76.2099683 77.4734105,75.2228158 C77.7103075,74.9807583 78.0334605,74.8229908 78.4315653,74.7136348 C78.4585971,76.8825689 76.6337042,78.1943489 75.9837121,80.0231736 C76.0581725,80.0772373 76.1328785,80.1315466 76.2073389,80.185856 C77.603409,78.5047232 78.9591771,76.7879576 80.407099,75.1530246 C81.835853,73.5399628 82.8588841,71.50029 85.0622223,70.6089775" id="Fill-1" fill="#FFFFFF"></path>
                <path d="M28.883832,51.5337357 C30.6826761,50.9250285 31.5589982,51.7234498 31.2552589,53.458892 C31.1869422,53.8486415 31.1306669,54.2465006 31.1341073,54.6399363 C31.1355817,54.8210494 31.2606653,55.1166791 31.3896807,55.1542779 C31.5857842,55.2112904 31.936952,55.1650906 32.0386899,55.0272284 C32.2406912,54.7532242 32.4994594,54.3256301 32.4132033,54.0698109 C32.0984056,53.135739 31.7845909,52.1503067 31.2181516,51.3663842 C30.595437,50.504561 29.7476212,50.6148999 28.883832,51.5337357 M35.6260567,51.2990504 C35.4016927,50.6542189 35.1773287,50.0093874 34.9529647,49.3645559 C35.0532281,49.2837062 35.1537373,49.2026108 35.2542465,49.1217611 C36.5662722,50.1836197 38.0975013,51.0687886 39.1323281,52.3537825 C40.2966618,53.7994928 39.5781072,55.4680926 38.6737703,56.8911945 C37.8175992,58.2383616 36.7316577,58.633026 35.1913361,58.3305155 C34.802078,58.2540892 34.3769414,58.3025007 34.0139779,58.1695533 C33.6864015,58.0496304 33.4212441,57.7596528 32.9739905,57.4310935 C29.4544489,58.3066783 28.0868851,57.1905104 28.0018578,53.0681595 C27.4366473,53.8889435 27.1154602,55.0898931 27.1572367,56.9686038 C27.2899383,62.9536921 28.8870267,68.4025675 33.1108697,72.8669937 C33.9331282,73.7359435 34.7072209,74.6518303 35.4783647,75.5672257 C35.6668502,75.7910982 35.7563009,76.0982778 36.0465242,76.2223784 C35.5218614,74.2176011 34.1400444,72.6495105 33.6505229,70.7147702 C33.7819958,70.6206503 33.9134687,70.5265305 34.0449416,70.4324106 C34.5226674,70.8145421 35.0834546,71.1286026 35.4646031,71.5906008 C37.6920241,74.2903413 39.8764401,77.0254689 42.078058,79.7463433 C42.2839913,80.0009338 42.5083553,80.2410254 42.724364,80.4877521 L42.9290685,80.3724983 C42.8563284,80.1857331 42.8096371,79.982503 42.7064247,79.8146601 C41.934298,78.5601384 41.12875,77.325522 40.3870955,76.0533067 C40.2116345,75.7525164 40.2394035,75.3330319 40.1735442,74.9681025 C40.5603448,75.0388767 41.082796,74.9747375 41.3103547,75.2037707 C42.3655782,76.2653836 43.431123,77.3397751 44.3202237,78.5377757 C45.7013034,80.3990387 47.1268627,82.185104 49.1048539,83.4528958 C49.3102957,83.5846145 49.5005013,83.7463138 49.6769453,83.915877 C50.3679766,84.5811053 51.1071738,85.2315889 50.7474049,86.3573409 C50.4611135,87.2540597 49.2908819,88.0878681 48.1486651,88.1269414 C44.8667578,88.2390005 41.5831302,88.30658 38.3012228,88.416919 C36.0526678,88.4923623 33.8055872,88.6103193 31.6892423,88.7037019 C31.9357233,89.0111273 32.4766052,89.4350352 32.4033736,89.6412142 C32.1790096,90.2735128 31.7007923,90.7785161 30.8932784,90.7487811 C30.0348956,90.7170802 29.1738096,90.6839048 28.3164098,90.7160972 C26.4804585,90.7853969 25.0295875,91.5737428 23.985914,93.1091495 C23.4241438,93.9355857 22.7869304,94.0154524 21.8508925,93.4374631 C21.1913164,93.0302658 20.8981441,92.1885936 21.3884029,91.5250855 C21.822632,90.9370208 22.4340424,90.371073 23.0928813,90.078638 C25.0689065,89.2018244 27.1700153,88.75924 29.3414068,88.6975583 C29.6276983,88.6894487 29.9132525,88.6629084 30.1919258,88.5569929 C28.3360693,88.1989443 26.52887,88.5103016 24.776963,89.068877 C23.7689223,89.3905556 22.7871761,89.8653324 21.8825935,90.4170271 C21.157158,90.8593658 20.6607557,91.6174852 20.8819251,92.5259997 C21.1011285,93.4259132 21.765128,93.9773621 22.6905988,94.1621614 C23.1702906,94.2580014 23.6526855,94.3452404 24.1372921,94.4110998 C25.1799827,94.5524024 25.3837042,94.9119255 24.9214603,95.8317442 C25.3178449,95.5815771 25.7142295,95.3306727 26.1265875,95.0696929 C26.5239551,96.0593029 26.0017497,97.2752428 24.8669052,98.2029253 C23.6716078,99.1797566 21.9283018,99.2620808 20.6619844,98.4009948 C19.5561377,97.649019 18.9223646,96.3001317 19.2460091,95.2151732 C20.745783,96.0585656 22.0826289,97.6856348 24.2577065,96.3055381 C21.0038139,97.0245842 19.6748319,94.7666909 18.0089352,92.8626686 C18.0644733,93.3856112 18.1313156,93.9078166 18.1728463,94.4317422 C18.2256812,95.0986907 18.2246982,95.810856 17.410795,95.9895117 C16.6357193,96.1595663 16.2548166,95.5847718 15.9989974,94.9519817 C15.867033,94.6258798 15.7714387,94.285279 15.6028585,93.7829788 C15.1619943,95.6017281 14.5975209,96.13106 13.4956061,95.9219321 C12.5138599,95.7356584 12.3042406,95.2672709 12.5259014,93.4775194 C12.189724,93.8820135 11.9688004,94.1498742 11.7454193,94.4157689 C11.0470157,95.2471199 10.1908446,95.7103468 9.07664255,95.5051508 C8.17427162,95.3387823 7.96514371,94.8313215 8.47137577,94.0552628 C8.667725,93.7542268 8.90609641,93.4802225 9.03240868,93.0518912 C8.50971179,93.3241753 7.96710966,93.5650041 7.46726694,93.8743955 C5.37107302,95.1724138 3.04584595,94.928636 0.753794283,94.8826819 C0.579561986,94.8792415 0.246333504,94.5708332 0.270662132,94.4826112 C0.341190579,94.2277749 0.509033539,93.8852082 0.723813549,93.8050957 C1.63994613,93.4630205 2.5745095,93.1514174 3.5250462,92.9238588 C5.5340011,92.4431841 7.36258011,91.5732513 8.91322298,90.2415661 C13.2970452,86.4762808 18.5532576,85.3876361 24.0844572,85.3861617 C26.7050682,85.3856702 29.3271537,85.9130362 31.946536,86.2180042 C33.5895785,86.4094385 35.2286891,86.6350313 36.8707486,86.8353124 C37.0088566,86.852023 37.1565486,86.792553 37.375752,86.5809676 C37.0619372,86.4148449 36.7618842,86.2111233 36.4316046,86.0899717 C35.36778,85.7002222 34.2697971,85.3942712 33.2344788,84.9423485 C32.854559,84.7764715 32.335794,84.2655703 32.3662663,83.9606024 C32.4304054,83.32044 33.0555774,83.3452601 33.6129242,83.418246 C34.634235,83.5519306 35.661198,83.6423643 36.6857036,83.750983 C36.7144556,83.6770141 36.7432076,83.6030453 36.7719597,83.5290764 C36.563569,83.417263 36.3613219,83.2921795 36.1460504,83.1956022 C33.9953014,82.2315496 31.8420949,81.2731491 29.6915916,80.3083592 C29.5532379,80.2461861 29.393996,80.170497 29.3131463,80.0537687 C29.1723352,79.8505387 29.0853419,79.6102013 28.9757402,79.3853458 C29.2227126,79.3025302 29.4851669,79.1192054 29.7137086,79.1545925 C30.6499921,79.2995813 31.5752172,79.513624 32.5058487,79.6967031 C32.7850136,79.751504 33.0676188,79.787874 33.4106771,79.6291236 C32.2340561,79.0695651 30.9431644,78.6665454 29.9088291,77.9118665 C28.5392993,76.9129183 27.3609582,75.6485668 26.1305194,74.467031 C26.017723,74.358658 26.0309932,73.9209885 26.1464927,73.8197421 C26.31409,73.6730331 26.6618173,73.5921834 26.8734027,73.6622203 C27.4400877,73.85046 27.9753175,74.1340483 28.6631542,74.2178469 C28.0903256,73.5349251 27.5297841,72.8411906 26.9429481,72.1708017 C24.044401,68.8589136 22.5338143,64.8989993 21.6891932,60.6663095 C21.1338124,57.8830162 21.0463276,55.0773601 21.8884913,52.2977529 C23.4654288,47.0931467 30.5664393,45.1886329 34.1887017,49.352023 C34.7150847,49.957044 35.1566862,50.6362796 35.634412,51.2852888 C35.6317088,52.4496225 35.6317088,53.6097786 35.6317088,54.9252448 C36.35739,53.613219 36.2077321,52.4562576 35.6260567,51.2990504" id="Fill-3" fill="#FFFFFF"></path>
                <path d="M49.7278143,54.3486317 C49.7278143,52.2308123 49.7445248,50.1125015 49.7128239,47.9951736 C49.706926,47.6005092 49.5066449,47.2085479 49.3958145,46.815358 C49.0124543,47.0193253 48.4693607,47.1254866 48.2742402,47.4447077 C47.5298824,48.6616306 46.6697794,49.8785535 46.2670055,51.2198227 C45.1461684,54.9538985 45.0522943,58.5768981 48.4305332,61.3943499 C48.6853694,61.6069182 49.0431723,61.6958774 49.3530551,61.8420949 C49.4774014,61.5236111 49.7049601,61.2066017 49.7096292,60.8861518 C49.7413302,58.707388 49.7263398,56.527887 49.7278143,54.3486317 M59.6091692,73.7729525 C62.9640624,73.536547 65.5731235,72.2776019 66.1697893,68.8054889 C66.2113199,68.5636771 66.246707,68.3206366 66.2951185,68.0802992 C66.5020348,67.0503873 66.337878,66.9041698 65.2784768,67.1501592 C62.033431,67.9036095 58.7910883,67.9758581 55.5391617,67.1597432 C53.2635749,66.5886348 53.2412122,66.6289368 53.7823399,68.9369618 C54.4800063,71.9129183 56.6961231,73.7520642 59.6091692,73.7729525 M66.4737742,54.8740318 C66.4737742,51.9882633 66.4855699,49.1024948 66.4700881,46.2167263 C66.4580466,43.9376991 66.7826741,44.5134766 64.7226045,43.7826348 C61.4844395,42.6332914 58.2239118,42.4091731 54.8953132,43.4393308 C53.9206936,43.7411041 53.5365962,44.193764 53.5459344,45.2553769 C53.5968034,50.9957044 53.5528152,56.7370149 53.5773896,62.4778339 C53.5889396,65.2380274 53.1171116,64.6809264 55.8180808,65.4105395 C59.0700075,66.289319 62.3305351,66.4780502 65.6239925,65.5953387 C66.2875005,65.4174203 66.4961369,65.126214 66.4892561,64.4523847 C66.4565722,61.259928 66.4747572,58.0669799 66.4737742,54.8740318 M66.2110742,42.3320096 C66.2110742,40.8853163 66.365647,39.4580368 66.1658574,38.0826092 C65.9808123,36.8079365 64.799768,36.2835194 63.6926926,35.8392148 C63.1640978,35.627138 62.2813864,35.7244525 62.4187571,34.8392836 C62.5603055,33.9283116 63.4056639,34.3084772 63.9477745,34.3033166 C67.2645775,34.2708784 70.5821177,34.2868517 73.8996579,34.287589 C74.1451559,34.287589 74.426041,34.2202552 74.6273051,34.3165867 C74.8614988,34.4284001 75.1581115,34.6699662 75.1844061,34.8849919 C75.2111922,35.1051783 74.9765069,35.391224 74.7931821,35.5902764 C74.6850548,35.7074962 74.4565132,35.721995 74.2778575,35.7650002 C71.3736582,36.4638953 70.7263693,37.2814847 70.7248948,40.2606358 C70.7244033,41.1514568 70.7305469,42.0422777 70.7236661,42.9330987 C70.7182597,43.634697 71.0836807,43.9153364 71.7550525,43.9293438 C72.8650769,43.9519522 73.6757854,43.3882161 74.0208096,42.3054693 C74.1694845,41.838802 74.2552491,41.3453486 74.4597079,40.9059588 C74.5663606,40.6764342 74.8900051,40.3749066 75.0757874,40.4002182 C75.2984312,40.430199 75.6510734,40.7735029 75.6518106,40.9821393 C75.6633606,44.3881473 75.6348543,47.7941552 75.5893917,51.1999174 C75.5861971,51.452542 75.4335902,51.7437483 75.2632898,51.9420635 C75.101099,52.1310404 74.8062065,52.3472949 74.6044509,52.3173141 C74.4383282,52.2927397 74.2621299,51.941572 74.1982365,51.7059037 C74.0620945,51.2043408 74.0028703,50.6821354 73.8996579,50.1709885 C73.5376774,48.379271 72.3092046,47.3567314 70.6755003,46.5848504 L70.6755003,63.2182597 C71.8125565,62.4505564 72.8628652,61.7415857 73.9134196,61.0323694 C74.1419612,60.8780423 74.3537923,60.6411454 74.6039594,60.5897849 C74.973558,60.5136044 75.3704341,60.5693882 75.7557602,60.5688967 C75.6368203,60.9439016 75.6301852,61.4390752 75.3795266,61.673269 C74.2144556,62.7628966 73.0184209,63.8272127 71.7602131,64.8065014 C70.9558939,65.4326564 70.5189616,66.1902843 70.3186805,67.1582688 C69.5180474,71.0282409 67.2306649,73.6921028 63.5290272,74.9724276 C59.4934239,76.3680061 55.6620336,75.9386919 52.3403157,73.0195022 C50.8776491,71.7337711 49.9993611,70.0546043 49.8214426,68.1419809 C49.6349231,66.1357292 48.6364664,64.9249499 46.9631974,63.8839795 C42.1259781,60.8753391 40.3136181,53.6258994 43.0035289,48.6210828 C43.9815889,46.8013506 45.4852947,45.5360162 47.2266347,44.4896394 C49.8209511,42.9306413 49.4277612,43.5909547 49.4700291,40.5660952 C49.4874769,39.3336905 49.5179491,38.1452739 48.6534227,37.0765344 C47.8980065,36.142954 46.8789073,35.9276825 45.8411316,35.684642 C45.3186805,35.5620159 44.9107459,35.3334742 45.1387961,34.7793221 C45.2390595,34.5355444 45.7153108,34.3114261 46.022982,34.3084772 C49.5857744,34.2762847 53.1490583,34.2755475 56.7118507,34.3087229 C57.0362325,34.3116718 57.3581567,34.6063186 57.6813097,34.7655605 C57.4436755,35.0791295 57.2397083,35.4293143 56.9548913,35.6915228 C56.7924547,35.8411807 56.4946133,35.8374946 56.2641057,35.9203102 C54.4392128,36.5762002 53.8469705,37.4210671 53.8462332,39.3602308 C53.8459875,39.8517182 53.8725278,40.3446801 53.8408269,40.8342016 C53.7924154,41.5761019 54.0934514,41.7766288 54.8284709,41.7122439 C56.4442358,41.571187 58.0786773,41.3721346 59.6865785,41.4802619 C61.6916015,41.6151752 63.6774565,42.0363799 65.6721582,42.3293064 C65.8169013,42.3504404 65.9675422,42.3320096 66.2110742,42.3320096" id="Fill-5" fill="#FFFFFF"></path>
                <path d="M42.433084,95.7190215 C41.3333808,97.0445632 39.8041177,97.4286606 38.2316036,97.4264489 C36.7192968,97.4242372 35.2074814,97.1313107 33.794455,96.9769836 C36.0850322,98.7659979 41.4073497,98.0882367 42.433084,95.7190215 L42.433084,95.7190215 Z M53.2227077,85.8546229 C53.3436136,85.5705432 53.6333455,85.2019276 53.5438947,85.0240092 C53.4286409,84.7944845 53.0216893,84.6794765 52.7186873,84.5841279 C52.2301488,84.4307838 51.4602338,84.6084565 51.5749961,83.759412 C51.6251278,83.3880932 51.9330447,82.8865303 52.2552147,82.7469479 C53.3315722,82.2805263 54.4499518,82.7619382 55.0721749,83.8237968 C55.8364379,85.127713 55.8924675,88.5619815 55.0967493,89.8590168 C53.7589205,92.0399923 51.9718722,93.7938653 49.766568,95.0913921 C48.2149422,96.00433 46.4903128,96.0515128 44.760277,95.8713827 C44.0183767,95.7942191 43.7981903,95.2835637 43.8441444,93.939837 C48.0402184,94.321477 51.4349221,92.7551066 54.1587455,89.6611931 C54.1132829,89.5828009 54.0678204,89.5041629 54.0223578,89.4255249 C53.8252713,89.6024604 53.6276934,89.7784129 53.4313441,89.9560856 C51.4069074,91.7915454 49.1104323,93.0659724 46.353925,93.3974806 C45.0202739,93.5579513 43.791801,93.293531 42.6920979,92.5073969 C42.168418,92.1326377 41.6619402,91.7335499 41.1372774,91.3602652 C39.8857046,90.46969 38.5977618,90.5829778 37.3248093,91.2889995 C36.3492067,91.8301272 36.0968279,92.7263545 36.5814346,93.7152273 C37.3044126,95.1906726 39.1573202,95.7106663 40.5123511,94.6392236 C40.0690294,94.3634992 39.7043457,94.078928 39.2939537,93.8958489 C38.7928823,93.6724679 38.2338153,93.578348 37.7356928,93.3500521 C36.8534729,92.9455579 36.7863848,92.1957939 37.5857891,91.661547 C38.6319201,90.9624061 39.7377669,91.0634068 40.8342754,91.5487506 C41.885567,92.0141892 42.57881,92.7794352 42.7338743,93.9555646 C42.7874464,94.3634992 42.5576761,94.8972546 43.2895008,94.9643426 C43.3831292,94.9729436 43.4949426,95.3816154 43.5047723,95.6089284 C43.5598189,96.8735255 43.0213944,97.8621525 42.0283441,98.6187974 C39.6271822,100.448605 35.0666703,100.307794 32.8161493,98.2966274 C32.3919956,97.9176906 32.0133046,97.4274319 31.7825512,96.9128445 C31.6225721,96.5562704 31.7518332,96.0696978 31.8385808,95.6330112 C30.3859897,92.5693243 32.1118478,89.1920684 35.5475907,88.9876096 C39.4617967,88.7546446 43.3963994,88.8522048 47.3221553,88.8224698 C48.857562,88.8109199 50.317034,88.5089008 51.6280767,87.700404 C52.3466313,87.2573281 53.1450527,86.830717 53.2426129,85.8285741 L53.2227077,85.8546229 Z" id="Fill-7" fill="#FFFFFF"></path>
                <g id="Group-11" transform="translate(62.8077, 82.4718)">
                    <mask id="mask-2" fill="white">
                        <use xlink:href="#path-1"></use>
                    </mask>
                    <g id="Clip-10"></g>
                    <path d="M2.05594231,9.51772608 C1.3757237,8.3666625 0.656431833,7.23574991 0.0450214607,6.04905349 C-0.0957896902,5.77529499 0.133243456,5.31059362 0.193450667,4.93411424 C0.238913255,4.64856004 0.330575662,4.36226861 0.324677813,4.07818887 C0.301086416,2.967673 0.304772571,1.87485069 1.01325171,0.921856544 C1.69297884,0.00719842244 2.6039508,-0.267297311 3.5763587,0.281694156 C3.86117567,0.442410548 4.17007552,0.882046061 4.1496788,1.17128642 C4.12903632,1.46298421 3.72331344,1.73698846 3.46307085,1.99551085 C3.38811901,2.06972545 3.23330047,2.06481058 3.11436051,2.09331685 C1.91709711,2.37960828 1.87089729,2.51034394 2.63098261,3.46382957 C2.80152875,3.73242746 2.97256638,4.00176257 3.14335827,4.27134343 C3.96021039,4.82918167 4.71267766,5.55560011 5.61136244,5.89964131 C6.58745649,6.27317176 7.69748086,6.42135523 8.75319588,6.44076898 C12.4373857,6.50859425 16.1235415,6.45625083 19.8084686,6.49311239 C22.2850738,6.51793251 24.6749314,8.88813068 24.5289597,11.1924695 C24.4886577,11.8309117 24.1532175,12.4506774 24.0259223,12.8509939 C24.0512339,13.4208736 24.2151449,13.8791856 24.0561487,14.1421314 C23.6054548,14.8864891 23.1392789,15.7013753 22.4706103,16.2198945 C20.1842107,17.9929355 15.9286667,17.9376431 13.6267853,16.2135052 C12.5305226,15.3924754 12.0301884,14.2944925 12.2017175,12.9252085 C12.2243259,12.7463071 12.3938891,12.5855907 12.4951355,12.416519 C12.6558519,12.5285781 12.9175689,12.610165 12.9622943,12.7573655 C13.6267853,14.9538229 15.4037581,15.4042711 17.3215421,15.3733074 C18.831883,15.348733 20.3493505,15.0730086 21.8385574,14.7808193 C22.3688724,14.6768697 22.8252184,14.196195 23.252321,13.7700754 C21.0769976,15.0484342 18.7409578,15.0346726 16.3683022,14.8270191 C14.9867311,14.7061132 13.8101101,14.1902972 13.3051068,12.845096 C12.815831,11.5416714 13.2630846,10.3800408 14.2937338,9.45088379 C14.3350187,9.41377649 14.3460772,9.34349379 14.3716345,9.28844719 C15.5020556,8.80752674 16.6644234,8.54458096 17.8321976,9.08300544 C18.1723069,9.24003568 18.5888425,9.63617456 18.6151371,9.95195523 C18.6397114,10.2485679 18.256597,10.6852545 17.9413078,10.8784091 C17.48275,11.1592941 16.9104129,11.2467789 16.4127819,11.4740918 C16.0011611,11.6623315 15.6273849,11.9336326 15.175708,12.2049336 C16.574727,13.3125006 19.1491382,12.3894872 19.4140499,10.860224 C19.4634444,10.5739326 19.4479625,10.2262052 19.3285311,9.96891155 C18.4433622,8.05923711 15.8394618,7.72232247 14.3925227,9.31080987 C14.021204,9.50248997 13.6152354,9.64723302 13.2849558,9.89371397 C11.6777919,11.0919603 9.90352223,11.2394066 8.03857315,10.7461989 C5.68656001,10.1242216 3.61911811,8.97881011 1.80159756,7.10059087 C2.41153347,8.38607626 3.85085443,9.56417165 5.804517,10.4626107 C7.35933751,11.1779706 8.98444072,11.5340533 10.7068584,11.476795 C11.1332238,11.4625419 11.821552,11.0076703 11.9220611,11.9198709 C12.0006991,12.632282 11.4458098,13.4039173 10.7653454,13.4481511 C9.29284909,13.5444827 7.74392643,13.6820991 6.46507611,12.838461 C4.9163992,11.8169043 3.50632174,10.5852368 2.03652856,9.44449446 C2.03702005,9.4447402 2.05594231,9.51772608 2.05594231,9.51772608" id="Fill-9" fill="#FFFFFF" mask="url(#mask-2)"></path>
                </g>
                <path d="M84.6641421,34.1550348 C83.8121486,33.8262297 83.1813245,34.0950733 82.6773041,34.6757657 C82.2020357,35.2235285 82.220958,35.8784355 82.5893278,36.4596194 C82.75029,36.7137184 83.1198885,36.8356073 83.3948758,37.0177034 C82.4792347,34.9274073 82.5883449,34.657335 84.6641421,34.1550348 M85.1030403,46.900287 C84.7010036,45.1228227 84.2318789,43.0838871 83.7927348,41.0383164 C83.7568562,40.8707191 83.8755505,40.5463374 84.0087436,40.4858845 C84.7997926,40.1278359 85.616399,39.8260626 86.5716048,39.4471258 C86.3696035,41.4120926 86.1835755,43.2205206 85.9702699,45.2953348 C86.974133,43.3072681 87.2466628,38.4594818 86.271306,36.4188259 C85.9159606,36.9756812 85.6535063,37.8222683 85.0890329,38.1523021 C84.4884353,38.5034699 83.601792,38.3658534 82.8043536,38.4452286 C83.0392846,39.1357685 82.3895382,39.1446153 81.7928724,39.1888491 C79.1245872,39.3866728 77.2643072,37.7138953 77.3181251,35.172168 C77.3493345,33.7040951 78.2200045,32.7872253 80.0296613,32.3677407 C79.9561839,33.3607911 79.7962047,34.3418 79.8347865,35.3149452 C79.8785289,36.408259 80.6246068,37.0968329 81.5589244,37.6627806 C81.1330506,37.0801223 80.6732641,36.5856859 80.3685419,36.0091712 C79.4221828,34.2189282 80.0866738,32.5245252 81.9988057,31.8197322 C82.8149206,31.5189419 83.5027572,31.1255062 83.7671775,30.2396001 C83.9989138,29.462067 84.4220845,29.0271006 85.3146257,29.2010872 C85.586664,29.2541678 85.8963011,29.1158141 86.2066754,29.0619962 C86.1535947,28.9329808 86.141799,28.8457418 86.1115726,28.8388609 C85.7070784,28.7459698 85.3001268,28.6643829 84.8939124,28.5800928 C85.0231736,28.2382633 85.0546288,27.7556226 85.301847,27.5843392 C85.8184003,27.2267821 86.4305479,26.7574116 87.0694816,27.4440196 C88.4119795,26.1283077 90.1833002,26.0400857 91.7563058,27.71016 C92.6348396,28.6430032 93.2742647,29.7110054 93.2946615,31.0522746 C93.322922,32.9164865 92.228871,33.6116954 90.5818966,32.740534 C90.8871103,33.6731314 91.2331174,34.5715704 91.4744377,35.4970412 C92.1190235,37.9697145 91.6250786,40.3585892 90.8527061,42.716746 C90.8241999,42.803985 90.7782458,42.8858176 90.7524427,42.9737939 C89.8205825,46.1448708 89.732852,46.235796 86.6399216,47.1268627 C86.4750275,47.1742913 86.2865421,47.1944423 86.1189449,47.166919 C85.841746,47.1217021 85.5724108,47.0270908 85.1030403,46.900287" id="Fill-12" fill="#FFFFFF"></path>
                <path d="M33.4808615,34.9305774 C34.1696811,34.2641204 35.003981,33.9670163 35.807563,34.5044578 C36.9986828,35.3009132 35.6959954,36.0656676 35.5581331,36.9319142 C36.3853065,36.8306678 36.666683,36.3064965 36.6858511,35.6800957 C36.7109169,34.848499 36.3238706,34.1653315 35.5016121,33.9065633 C34.5599221,33.6101964 33.959816,34.1859739 33.4808615,34.9305774 M28.9766249,31.7169868 C29.8839107,31.8632043 29.8426257,31.1977303 29.8984095,30.6492303 C29.9674635,29.9680287 30.0613376,29.2317806 29.0994967,29.1032566 C28.453928,29.0170006 27.9545767,29.2384156 27.7503637,29.9692575 C29.2567727,30.0528103 29.2567727,30.0528103 28.9766249,31.7169868 M35.9218338,31.0687149 C36.2417922,31.240244 36.5472516,31.4518293 36.8846577,31.5764214 C38.5783234,32.2023306 39.2887685,33.4819182 38.760911,35.2289103 C38.527946,36.0002998 38.0703712,36.7038641 37.7740042,37.3160117 C38.4920674,36.9432185 39.2895058,36.1386535 39.358314,35.2507815 C39.428351,34.3434957 39.2209433,33.4148301 39.1346872,32.4932912 C40.6425707,32.2915356 42.0929501,33.8028595 41.9197008,35.4296829 C41.6801007,37.6799581 39.1929285,39.5164009 36.9741084,39.0391666 C36.6841309,38.9767477 36.4489541,38.6580181 36.1167086,38.4031819 C35.503578,38.3351109 34.6361027,38.4415179 33.9986435,38.1077979 C33.4358904,37.813397 33.1299394,37.0282458 32.7519856,36.5156244 C32.3197224,37.0601925 31.9862482,39.9127856 32.2499312,41.6666585 C32.5249184,43.4959747 32.747808,45.3331548 32.9935517,47.1671401 C32.9114733,47.2320165 32.8296406,47.2971386 32.7475622,47.3620149 C31.5810168,46.7918895 30.4098022,46.2308566 29.2538238,45.6400887 C29.1162073,45.5695602 29.0324087,45.3469164 28.972693,45.177599 C27.5053572,41.0033962 26.5712853,37.8033215 28.4401663,32.8459334 C28.3951952,32.8164442 28.3293359,32.7498476 28.306236,32.7623806 C26.6027405,33.684411 25.6077242,32.3146355 25.7411631,30.84902 C25.8854146,29.2666762 27.698266,26.9345683 29.2331813,26.5386751 C30.6604608,26.1703053 31.6861951,26.6839097 32.3821413,28.0074854 C32.346017,27.739379 32.3098927,27.4712726 32.2740141,27.2034119 C33.0542504,26.9402204 34.1070165,27.3464348 34.3183561,28.0448384 C34.3756144,28.2345525 34.1800024,28.5837544 33.9974148,28.7378357 C33.8416133,28.8695543 33.5381198,28.8265492 33.2928675,28.8616905 C33.3184249,28.9489295 33.3427535,29.04821 33.3476684,29.047227 C35.0106161,28.7284974 35.418305,29.9989925 35.9574667,31.1026275 C35.9574667,31.1026275 35.9218338,31.0687149 35.9218338,31.0687149" id="Fill-14" fill="#FFFFFF"></path>
                <path d="M43.9948099,20.1012956 C44.0884382,20.1556049 44.1820666,20.2096685 44.275695,20.2639779 C45.0795227,19.9540951 45.5771537,19.3925707 45.6263024,18.4634137 C45.6752054,17.5381886 45.3134707,16.8523179 44.4354284,16.4977097 C43.6443793,16.1782428 42.9250875,16.3163508 42.3365313,16.944226 C41.6764636,17.6485275 41.496825,19.0418944 42.0158357,20.0329788 C42.0158357,19.5439488 41.9725848,19.2035938 42.0276314,18.8799493 C42.0880844,18.5236209 42.202601,18.1653265 42.3576652,17.8382417 C42.7749381,16.9579877 43.6180848,16.5407148 44.2862619,16.9545472 C44.9937581,17.392954 44.6865785,18.0943066 44.5211929,18.6980989 C44.38972,19.1777907 44.1734656,19.6343825 43.9948099,20.1012956 L43.9948099,20.1012956 Z M39.4291373,29.454793 C38.9413361,29.9145795 38.443705,30.0131227 37.8979082,29.5346597 C37.739895,29.396306 37.5344533,29.3053808 37.3395785,29.2174046 C36.0135454,28.6182814 35.9983093,28.6165612 36.3543919,27.2693941 C37.1211123,24.3691267 37.8234479,21.4484626 38.7071423,18.5838281 C39.3330515,16.554968 40.5268745,14.8905457 42.7159596,14.2331813 C44.4157689,13.7230173 45.889494,14.1909134 47.0847914,15.4314277 C48.2938505,16.6861951 48.4651339,18.1891637 47.8112098,19.7778968 C47.5912692,20.3118979 47.2754885,20.8063343 47.0154917,21.2963473 C48.2520741,20.6362796 48.9659596,18.8644674 48.4983093,17.56178 C48.3127728,17.0452267 48.1048736,16.5353085 47.9466146,16.0103999 C47.7922876,15.4975327 47.9294126,15.2107498 48.5366453,15.4043959 C49.2077714,15.6184386 49.8884815,15.8049581 50.5517438,16.0403806 C52.3822888,16.690127 53.3866433,18.5894802 52.9121122,20.467208 C52.4132525,22.439547 50.7726674,23.5640703 48.7873039,23.2873629 C48.1495989,23.1986494 47.4991153,23.1480262 46.8835273,22.9757598 C46.4927948,22.8664039 46.1556344,22.5653678 45.8496835,22.2306649 C44.2204026,22.5783922 42.9875064,21.9352809 42.094228,20.4600814 C42.0300889,20.5099674 41.9659498,20.5600991 41.9018106,20.6099851 C42.0856269,21.1071246 42.3409547,21.5914855 42.4340915,22.1050898 C42.541973,22.7010184 42.6564896,23.3642807 42.5004423,23.9233476 C42.2652656,24.7650199 41.7976153,25.5418158 41.428754,26.3461349 L41.4611922,26.313451 C40.7755672,27.3706405 40.0899422,28.4280757 39.4040715,29.4852652 L39.4291373,29.454793 Z" id="Fill-16" fill="#FFFFFF"></path>
                <path d="M71.1023817,16.9446192 C71.8926935,15.7149176 72.7584487,14.6063677 74.292381,14.2072799 C76.1674055,13.7197244 77.6536635,14.1743503 78.8565791,15.7178666 C80.0747307,17.2807966 80.6438731,19.1285436 81.1422414,20.9988991 C81.7416103,23.2474541 82.292322,25.5092793 82.8739974,27.7627492 C83.0519158,28.4515688 82.9735236,28.8990681 82.1598661,29.1524299 C81.4796475,29.364261 80.8792956,29.8328943 80.2497002,30.1843078 C80.207678,30.7605768 80.1641814,31.357734 80.108889,32.1148704 C79.7677968,31.964721 79.5136978,31.8981245 79.3114507,31.7568218 C77.2037068,30.2853085 75.5717228,28.4004541 74.4732483,26.0725239 C74.0203427,25.1126489 74.58285,24.1645697 75.6329129,24.1223017 C75.8589972,24.1132092 76.1312812,24.2987457 76.3160805,24.4673259 C76.5362669,24.6683443 76.6851876,24.9472634 76.8780964,25.2104549 C76.922576,25.1315712 76.9776226,25.0733299 76.9655811,25.0499843 C76.2516956,23.679963 76.422979,22.3934947 77.1334241,21.0423957 C77.800864,19.7726379 77.7883311,18.4210475 76.871707,17.2178862 C76.3581027,16.5438112 75.6565043,16.1117937 74.7865716,16.4061947 C73.9018942,16.7055106 73.4976458,17.4827979 73.4841299,18.3507648 C73.4711055,19.190471 73.8829719,19.8864173 74.7278388,20.2196457 C74.7993503,20.2479063 74.9018254,20.1977745 75.170669,20.1562439 C74.9969282,19.6475544 74.839898,19.1754807 74.6745124,18.7063559 C74.4653845,18.1136221 74.2098111,17.4958224 74.9848868,17.1200802 C75.6781298,16.7841485 76.697229,17.1618566 76.8854687,17.9121122 C77.1874877,19.115765 77.2518726,20.3533303 76.5441307,21.4709728 C75.9518883,22.4062733 74.8340001,22.6441533 73.6927663,22.1310404 C72.0059814,21.372921 70.9738578,19.6094641 71.1156519,17.7410746 C71.1362944,17.4663331 71.1257274,17.1891342 71.1296593,16.913164 L71.1023817,16.9446192 Z" id="Fill-18" fill="#FFFFFF"></path>
                <path d="M59.8105807,23.0200674 C61.5509378,23.5004964 62.9769886,22.4619834 64.6050407,21.9876981 C64.6475544,22.9276678 64.2032497,23.437586 63.6213286,23.7631964 C61.2843058,25.0707988 58.8413675,25.2275833 56.3893367,24.1480311 C55.8818759,23.9246501 55.4756615,23.3670576 55.1409586,22.8819595 C54.7782409,22.3563136 54.8578618,21.9201185 55.4793477,22.0056374 C55.3690088,21.4251907 54.9755731,20.6626479 55.2068179,20.2529932 C55.5194039,19.6993326 56.260567,19.2402833 56.9083474,19.0513064 C58.792956,18.5018234 60.7303995,18.5369648 62.6366335,19.0087927 C63.0939626,19.1220806 63.5613671,19.3724934 63.9179413,19.6821305 C64.7883655,20.4385297 64.6777808,21.5087436 63.6360732,21.9788513 C62.7826053,22.3639317 61.8436185,22.5642128 60.9353497,22.820032 C60.5706661,22.9229987 60.1860771,22.9554368 59.8105807,23.0200674" id="Fill-20" fill="#FFFFFF"></path>
                <path d="M64.863686,91.989492 C64.863686,91.989492 64.8447637,91.9165061 64.8442722,91.9162604 C65.1966687,92.6294086 65.5994427,93.3238804 65.8771331,94.0652892 C65.9842773,94.3508434 65.9221042,94.9067157 65.7284581,95.0431034 C65.5126951,95.1952188 65.0020397,95.1097 64.7226291,94.9487379 C64.2871712,94.6978335 63.9387066,94.2962883 63.4568032,93.8741006 C63.6062154,94.5393288 63.7681605,95.0890575 63.8372144,95.6503362 C63.8662122,95.8864959 63.7605424,96.2961507 63.6054781,96.3605355 C63.376445,96.4556383 62.9427073,96.4163193 62.7827281,96.2524083 C62.2801822,95.7370837 61.8648754,95.1369775 61.3144094,94.4412771 C61.3144094,95.069398 61.3787943,95.6554968 61.291801,96.2182499 C61.2328225,96.6008729 60.9612757,96.9503204 60.784586,97.3147584 C60.4643819,97.0736838 60.0279411,96.8974856 59.8500226,96.5775272 C59.5477578,96.0336964 59.4084211,95.3991861 59.1479328,94.6521252 C58.9709973,95.3574097 58.9134933,95.9759466 58.6515305,96.4902882 C58.4824588,96.8225337 58.0140713,97.0024181 57.6796141,97.2503735 C57.4837563,96.9227972 57.1593746,96.6094739 57.1205471,96.264204 C57.0514931,95.6471415 57.1547055,95.0106653 57.1974649,94.1530197 C56.724654,94.9280954 56.4071531,95.5370483 55.9984813,96.0769473 C55.825232,96.3052432 55.4600568,96.3880588 55.1821207,96.5372253 C55.0430297,96.2504423 54.7879477,95.9636594 54.788685,95.6771222 C54.7901594,95.0755416 54.92581,94.4744525 55.011083,93.8374848 C54.5488391,94.2527916 54.1325492,94.6899697 53.6491714,95.032045 C53.4378318,95.1817029 53.0077802,95.2635356 52.8261756,95.1458243 C52.6443253,95.0278673 52.5472565,94.6076456 52.5873127,94.3466657 C52.8070076,92.9184033 53.702252,91.9211752 54.8390624,91.1355326 C55.0275479,91.0050427 55.6232306,91.0765541 55.6586177,91.1807494 C55.7910736,91.5727107 55.7696939,92.0167696 55.8085214,92.4709039 C56.1112777,92.2856132 56.5138059,91.8481894 56.8762779,91.8793988 C57.154214,91.9029902 57.381527,92.5180867 57.6351345,92.8753981 C57.8233742,92.7955314 58.2077173,92.4799965 58.4768067,92.5586345 C58.7734194,92.645382 58.9643622,93.09411 59.1715242,93.3484548 C59.4408593,93.0786282 59.7615549,92.7574411 60.0820047,92.4362541 C60.4869903,92.8972693 60.891976,93.3582845 61.2512533,93.7672021 C61.2193066,93.5865804 61.0993837,93.2612157 61.1224836,92.946418 C61.1492696,92.5795227 61.3008935,92.2217198 61.3984538,91.8599851 C61.7383173,92.0130834 62.0929255,92.1408701 62.4128839,92.3281268 C62.6148852,92.4463296 62.7650346,92.6532458 62.9891529,92.8692545 C62.907566,92.5461015 62.7979643,92.2831557 62.7851856,92.0157866 C62.7709324,91.7122931 62.8436726,91.4048677 62.8785682,91.0989168 C63.198035,91.138973 63.5538719,91.1038316 63.8278762,91.2372705 C64.2055843,91.4213325 64.521365,91.7326898 64.863686,91.989492" id="Fill-22" fill="#FFFFFF"></path>
                <path d="M71.1296102,16.9132131 C70.2928528,17.9222369 70.599541,20.127541 71.7152174,21.1360732 C72.2271016,21.5988086 72.7362826,22.0649845 73.2024584,22.679098 C71.5033863,23.0821177 69.8542003,24.001445 68.1634835,23.1093953 C66.6194757,22.2947548 66.0921097,20.7556619 66.3083641,19.110162 C66.4155084,18.2930641 66.8553897,17.3857783 67.4279725,16.792553 C68.4890939,15.6933413 70.0613622,15.6989934 71.6461634,15.1409094 C71.4095122,15.9265521 71.2559224,16.4357331 71.1025783,16.9446683 C71.1023326,16.9446683 71.1296102,16.9132131 71.1296102,16.9132131" id="Fill-24" fill="#FFFFFF"></path>
                <path d="M56.6906665,87.0756252 C56.6963443,85.4367603 57.8599408,84.2793074 59.4666133,84.314203 C60.8602259,84.3444295 62.0049001,85.6146788 62.0294745,87.1581951 C62.0545404,88.7469282 60.8417951,89.9554958 59.2451982,89.9328874 C57.6945553,89.9105247 56.6847944,88.7810866 56.6906665,87.0756252" id="Fill-26" fill="#FFFFFF"></path>
                <path d="M90.9727274,58.4000118 C90.9727274,58.9170566 91.0113091,59.2379979 90.966338,59.5468977 C90.7154337,61.2695612 90.4763251,62.9949278 90.1723401,64.7084988 C89.7961064,66.8300043 88.2135169,68.2646562 87.0720373,69.9465262 C86.9867642,70.0721012 86.7068621,70.0652204 86.5176395,70.1200212 C86.4805322,69.8634648 86.3556944,69.5815967 86.4210622,69.3542838 C86.7248014,68.2956199 87.0255918,67.2295836 87.4318061,66.2077812 C88.0449367,64.6647564 88.2995272,63.0848701 88.1375821,61.4410903 C88.0547664,60.6004011 88.3012474,60.1003126 89.1692142,59.7791255 C89.775464,59.5547615 90.2492579,58.9730861 90.9727274,58.4000118" id="Fill-28" fill="#FFFFFF"></path>
                <path d="M27.7897073,58.4108982 C28.9024348,59.1004551 29.7554113,59.6071787 30.5769325,60.1603478 C30.7086512,60.2490613 30.7651722,60.5510803 30.7474787,60.7444806 C30.4867446,63.5666015 31.1782674,66.2061347 32.2381601,68.7825119 C32.3883095,69.1476871 32.4576092,69.5460376 32.6254522,70.1483555 C31.4512887,69.7927643 30.8949249,69.1059106 30.4348927,68.3721199 C29.0771586,66.2061347 28.3276403,63.8265983 28.0845997,61.2838881 C28.0015384,60.4159212 27.906927,59.5486917 27.7897073,58.4108982" id="Fill-30" fill="#FFFFFF"></path>
                <g id="Group-34" transform="translate(0, 94.445)">
                    <mask id="mask-4" fill="white">
                        <use xlink:href="#path-3"></use>
                    </mask>
                    <g id="Clip-33"></g>
                    <path d="M7.69448158,1.15384265 C7.85102033,2.07587308 7.30178312,2.64501554 6.41047065,3.00183542 C4.88194472,3.61349153 3.31557425,4.10669918 1.68604765,3.54886094 C1.10019463,3.34808832 0.520485196,2.88461566 0.151869618,2.38354422 C-0.0825698895,2.06481462 -0.00466913066,1.43497347 0.112796367,0.992143285 C0.145234538,0.870500144 0.834299925,0.847645978 1.20316125,0.903429802 C3.04574765,1.18210318 4.79667165,0.784489842 6.5220383,0.223211189 C7.68710927,-0.155971369 7.69399009,-0.173910661 7.69448158,1.15384265" id="Fill-32" fill="#FFFFFF" mask="url(#mask-4)"></path>
                </g>
                <path d="M118.441911,95.5444698 C118.682494,96.788916 117.876946,97.9849507 116.457531,98.2154583 C114.733147,98.4951146 113.036041,98.3208823 111.517836,97.3253745 C110.959015,96.9589706 110.56435,95.4690265 110.90618,94.9291275 C110.989979,94.7969174 111.29937,94.6698679 111.427157,94.7241773 C113.667111,95.672748 116.010768,95.6245822 118.366222,95.4950753 C118.390551,95.4936008 118.416599,95.5272677 118.441911,95.5444698" id="Fill-35" fill="#FFFFFF"></path>
                <path d="M41.428754,26.3460858 C41.8600342,25.7698168 42.261088,25.1667617 42.7363563,24.6293202 C42.9484331,24.3894743 43.4281249,24.0670585 43.581469,24.1518401 C44.1373412,24.459757 45.0782939,24.5234046 44.8669544,25.5336571 C44.7932312,25.8853163 44.6624956,26.2679393 44.4388688,26.5382574 C43.1177506,28.1358373 41.7831164,29.7233417 40.4005623,31.2671038 C40.1034581,31.5988578 39.5898537,31.73672 39.1691405,31.9677191 C38.5034208,30.9397731 39.2870975,30.240878 39.4291373,29.4547438 C39.4291373,29.4547438 39.4040715,29.4854618 39.4040715,29.4854618 L41.4611922,26.3134019 L41.428754,26.3460858 Z" id="Fill-37" fill="#FFFFFF"></path>
                <path d="M54.3949298,11.707157 C54.3074451,11.8863042 54.2457634,12.2394379 54.0678449,12.3134068 C53.8914009,12.3868842 53.535564,12.24509 53.3662466,12.0841279 C52.1957693,10.9721376 51.0120218,9.8677653 49.9314867,8.67173063 C49.6619058,8.37339775 49.5245351,7.5147692 49.7243247,7.31817422 C50.2580801,6.79277415 51.0004718,6.47183285 51.6821649,6.11206405 C51.7718614,6.06463551 52.0515177,6.22314021 52.1429344,6.35559608 C53.2468152,7.95342174 54.0845555,9.66723843 54.3949298,11.707157" id="Fill-39" fill="#FFFFFF"></path>
                <path d="M61.9759269,9.77288366 C62.1354146,8.29006606 62.2531259,6.85467699 62.4553729,5.43108363 C62.5927437,4.46506507 63.1896552,4.1178292 64.1905693,4.29034129 C65.2246589,4.46825974 66.0056324,5.22318445 65.6441434,6.0132505 C64.8884815,7.66513978 63.8883046,9.20669013 62.9426827,10.7656883 C62.902135,10.8322848 62.3263575,10.6973715 62.138855,10.5140467 C61.9781386,10.3572622 62.0167204,9.9962647 61.9759269,9.77288366" id="Fill-41" fill="#FFFFFF"></path>
                <path d="M58.7253028,9.68684878 C58.4712038,8.21730134 58.1903187,6.8045207 57.9937237,5.38043585 C57.8602849,4.41368006 58.3387479,3.91604903 59.3485088,3.80693882 C60.3919367,3.69389671 61.3500914,4.20528939 61.2196015,5.06416368 C60.946826,6.86005878 60.4086472,8.61712637 59.927481,10.3759142 C59.9068386,10.4511117 59.3160707,10.4793723 59.085563,10.3547802 C58.8879851,10.2481274 58.8258119,9.89032458 58.7253028,9.68684878" id="Fill-43" fill="#FFFFFF"></path>
                <path d="M73.0966412,11.3409252 C72.7675903,11.7009397 72.5225838,12.1548284 72.1438928,12.3501946 C70.7881247,13.0500727 69.3927918,13.6742618 67.9979505,14.2950104 C67.7834162,14.3906047 67.3371456,14.4122302 67.2717778,14.3033657 C67.1400592,14.0844081 67.0828009,13.6899894 67.1978089,13.4786498 C67.5145726,12.8969744 67.9067796,12.3487202 68.3233152,11.8309382 C68.8784502,11.1408898 69.482734,10.4904062 70.0693243,9.82591515 C70.9166486,8.86653167 71.6138236,8.86972634 72.369977,9.89472339 C72.6498791,10.2743974 72.8042061,10.7467169 73.0966412,11.3409252" id="Fill-45" fill="#FFFFFF"></path>
                <path d="M46.3493542,11.158485 C46.4390506,10.1415975 46.834698,9.44737153 47.5982238,9.31221248 C48.0884825,9.22546495 48.8298913,9.48742775 49.175407,9.85751779 C50.1512553,10.9031573 51.0002998,12.0709315 51.8520475,13.2254355 C52.019399,13.4525027 51.9746737,13.8356171 52.0277543,14.1469744 C51.7139396,14.1855562 51.3330368,14.3585597 51.0971228,14.2410942 C49.6278211,13.5097609 48.1767045,12.7381257 46.757043,11.9151299 C46.5058929,11.7694039 46.4309411,11.3196929 46.3493542,11.158485" id="Fill-47" fill="#FFFFFF"></path>
                <path d="M69.8026186,8.0165533 C69.6652479,8.26966933 69.5396729,8.7107793 69.2546102,8.98797822 C68.2264184,9.98815515 67.1652971,10.9578599 66.0665769,11.8793988 C65.8272225,12.0799257 65.3807062,12.0337259 65.0297841,12.1010596 C64.994397,11.7668482 64.8398242,11.3891401 64.9435281,11.1057976 C65.4357528,9.76084221 65.9746687,8.43136869 66.5445484,7.11688554 C66.8780226,6.3477077 67.5208882,6.01079306 68.3421637,6.24744427 C69.1305096,6.47426572 69.6524692,7.00384343 69.8026186,8.0165533" id="Fill-49" fill="#FFFFFF"></path>
                <path d="M57.1960642,9.39421716 C57.1960642,9.54682401 57.2373491,9.71466697 57.1882004,9.84933453 C57.0547615,10.2150012 56.8829867,10.5664147 56.7264479,10.9234803 C56.3846184,10.6971504 55.912299,10.5479839 55.7240593,10.230483 C55.0553906,9.10276511 54.4852652,7.91656018 53.8738548,6.75443813 C53.533254,6.10714918 53.3784355,5.3608255 54.0053277,4.91946978 C54.520898,4.55650631 55.2772972,4.33976035 55.9056639,4.38129104 C56.7136692,4.43461743 56.840473,5.25663017 56.9107557,5.92554457 C57.0316616,7.07832835 57.0876912,8.23799296 57.1709983,9.39470865 C57.1793536,9.3944629 57.1877089,9.3944629 57.1960642,9.39421716" id="Fill-51" fill="#FFFFFF"></path>
                <path d="M32.6744043,39.5801469 C33.7212726,39.9988942 34.5309981,40.2618399 35.2677378,40.6599448 C35.4549945,40.7611912 35.5220825,41.3182922 35.4510626,41.620557 C35.2419347,42.5096577 34.8998594,43.3670576 34.6784443,44.2539466 C34.4884844,45.0150149 34.4086177,45.8028693 34.2474099,46.5720471 C34.1918718,46.8369589 34.0370532,47.0807366 33.9276973,47.3340984 C33.7207811,47.1085057 33.3819005,46.9094533 33.3302943,46.6524053 C33.1275557,45.6465763 32.9707712,44.6262484 32.8810748,43.6037088 C32.7724561,42.3641774 32.7488647,41.1172738 32.6744043,39.5801469" id="Fill-53" fill="#FFFFFF"></path>
                <path d="M49.9626715,3.08796642 C50.89232,3.09558448 51.2439793,3.5875634 50.9485953,4.46732592 C50.6328147,5.40729564 48.9307937,6.49741478 47.9244731,6.41238745 C47.3287904,6.36200999 47.1732346,5.98012425 47.1678282,5.461605 C47.1550495,4.23042897 48.5108176,3.07617072 49.9626715,3.08796642" id="Fill-55" fill="#FFFFFF"></path>
                <path d="M68.2966274,3.90698109 C68.197347,3.28967287 68.5052638,3.04786105 69.1827793,3.06604608 C70.4068287,3.09897574 71.7009151,3.99520308 72.0619127,5.12685291 C72.323384,5.94616247 72.0208735,6.36712146 71.1632279,6.37719695 C69.7155516,6.39439901 68.2968732,5.20696536 68.2966274,3.90698109" id="Fill-57" fill="#FFFFFF"></path>
                <path d="M11.7619087,96.9401958 C11.8855178,97.6096017 11.6444432,98.1625251 10.8936962,98.4642984 C10.0657856,98.7967896 9.1068936,98.8741989 8.58517969,98.2234695 C8.19444717,97.7364055 8.32567432,96.8256792 8.2644732,96.099998 C8.2620267,96.0727205 8.67438466,95.9844985 8.89653698,95.9690166 C9.40915838,95.9326466 9.9500403,96.0184111 10.432681,95.885218 C11.7518332,95.5212716 11.7422492,95.486376 11.7619087,96.9401958" id="Fill-59" fill="#FFFFFF"></path>
                <path d="M106.917735,95.8612089 C108.119176,95.9752339 109.195779,96.0774633 110.38051,96.190014 C110.366748,96.9228217 110.736101,97.8409203 109.815791,98.4793624 C109.116895,98.9644605 107.690107,98.9627403 107.229829,98.3921234 C106.579346,97.586084 106.867603,96.6335814 106.917735,95.8612089" id="Fill-61" fill="#FFFFFF"></path>
                <g id="Group-65" transform="translate(57.4711, -0)">
                    <mask id="mask-6" fill="white">
                        <use xlink:href="#path-5"></use>
                    </mask>
                    <g id="Clip-64"></g>
                    <path d="M2.05376528,2.67253666 C1.5598204,2.52607341 1.0336831,2.4501386 0.587166762,2.22012248 C-0.208551399,1.8104677 -0.191840826,0.822823694 0.614935802,0.414151889 C1.52173012,-0.0448973774 2.51011136,-0.177844729 3.43287903,0.301109779 C3.81083287,0.496967523 4.26668746,0.996564503 4.26103536,1.35117269 C4.25538325,1.70799257 3.77913193,2.15549188 3.40019511,2.3798559 C3.03379123,2.59709334 2.52903363,2.58038277 2.05376528,2.67253666" id="Fill-63" fill="#FFFFFF" mask="url(#mask-6)"></path>
                </g>
                <path d="M72.6668354,7.69821688 C72.6754364,6.82607243 73.1433325,6.50660559 73.98181,6.80026934 C75.0085273,7.1597924 75.8922217,8.40817049 75.8855866,9.49042582 C75.8811633,10.2207762 75.4985403,10.5476153 74.7738421,10.440471 C73.6215498,10.2699249 72.653811,9.0102426 72.6668354,7.69821688" id="Fill-66" fill="#FFFFFF"></path>
                <path d="M53.5982778,3.79130952 C52.9532006,3.47626607 52.4604844,3.23543723 51.9677683,2.99485413 C52.2869893,2.43701588 52.4764578,1.63097649 52.9561495,1.37982641 C53.6599595,1.01145657 54.588625,0.866467778 55.3895038,0.946088743 C56.2638599,1.03308202 56.5228738,2.04677486 55.8274191,2.60535033 C55.1926631,3.11526855 54.3716333,3.39320469 53.5982778,3.79130952" id="Fill-68" fill="#FFFFFF"></path>
                <path d="M65.8696379,3.82264184 C64.9635808,3.42109661 64.1730232,3.17068376 63.508778,2.72981953 C63.2190461,2.53740219 63.047517,1.93901624 63.0912594,1.55565604 C63.1180455,1.32097079 63.664088,0.963167931 63.9621751,0.977175323 C64.7630539,1.01477411 65.5823635,1.14133213 66.343186,1.38928754 C66.9211752,1.57777297 67.5527366,2.06606574 67.2381846,2.750462 C67.0317599,3.19992726 66.3793103,3.44419652 65.8696379,3.82264184" id="Fill-70" fill="#FFFFFF"></path>
                <path d="M44.1274624,10.3475799 C43.4826308,10.4453859 43.2631817,10.089549 43.2894763,9.43341328 C43.3322357,8.36909724 44.2790862,7.07746825 45.2787717,6.77446624 C46.1639405,6.50635985 46.6500216,6.87964456 46.6249558,7.80781858 C46.5905516,9.08740613 45.375349,10.3559352 44.1274624,10.3475799" id="Fill-72" fill="#FFFFFF"></path>
                <path d="M100.183227,95.7255829 C100.943066,97.4693803 101.79039,96.3301125 102.578736,95.9587937 C103.262641,97.6836689 102.417528,99.2908328 100.913085,99.3473538 C100.117367,99.3773346 99.6261255,99.0313274 99.6049915,98.2877069 C99.5828746,97.5057504 99.7585814,96.7181418 99.8477863,95.9329906 C99.9595997,95.8639366 100.071413,95.7946369 100.183227,95.7255829" id="Fill-74" fill="#FFFFFF"></path>
                <path d="M18.9788366,97.8209659 C18.8628455,98.4468751 18.8807848,99.1841063 17.9388491,99.263973 C16.9799571,99.3453142 16.1606476,98.8353959 15.9687217,98.0062566 C15.9274368,97.8278467 15.8738647,97.6479623 15.8642807,97.4668492 C15.8416722,97.0453987 15.8424095,96.6227195 15.8335627,96.2007775 C16.2009496,96.2993208 16.565879,96.4086767 16.9367062,96.4919838 C17.1070066,96.5303199 17.3008984,96.5634953 17.463335,96.5202444 C18.6448708,96.2059382 19.0365863,96.5288454 18.9788366,97.8209659" id="Fill-76" fill="#FFFFFF"></path>
                <path d="M13.4500698,99.2486386 C13.0964446,99.0191139 12.5238617,98.8532369 12.4351482,98.5467945 C12.2564925,97.930715 12.3198944,97.2369805 12.3493837,96.5783873 C12.3525783,96.5095791 12.7966372,96.4297124 13.0406608,96.4090699 C13.5781023,96.3633616 14.1356948,96.4267635 14.6527396,96.3070863 C15.2533372,96.1682411 15.4248663,96.3395244 15.4361705,96.9202168 C15.4627108,98.3170241 14.8031347,99.1002094 13.4500698,99.2486386" id="Fill-78" fill="#FFFFFF"></path>
                <path d="M103.12935,96.5318926 C104.093648,96.5318926 104.848818,96.5166565 105.602269,96.5427053 C105.785348,96.5490947 106.118576,96.6886771 106.120051,96.7714927 C106.131601,97.4209934 106.297478,98.2258041 105.979977,98.6752693 C105.70843,99.060104 104.859631,99.1677397 104.268126,99.1628249 C103.58889,99.156927 103.185625,98.6258748 103.136968,97.9326318 C103.099123,97.3924871 103.12935,96.8474276 103.12935,96.5318926" id="Fill-80" fill="#FFFFFF"></path>
                <path d="M81.567034,31.426616 C80.8752654,31.4192437 80.6312419,31.2285466 80.8651899,30.6331095 C81.1726153,29.8509073 82.2647004,29.177078 83.0562409,29.3672836 C83.2137626,29.4051282 83.4671244,29.6582442 83.4418128,29.7405684 C83.3066538,30.1833985 83.2061446,30.7387793 82.885449,30.9968102 C82.5168334,31.2934229 81.9307347,31.320209 81.567034,31.426616" id="Fill-82" fill="#FFFFFF"></path>
                <path d="M35.9217847,31.0688132 C35.9217847,31.0688132 35.9576633,31.1027258 35.9574175,31.1027258 C35.9466048,31.0425186 35.9247336,30.9818199 35.9274368,30.9221042 C35.9515197,30.3861371 35.8084968,29.7413056 36.0586639,29.3471327 C36.2798333,28.9989138 37.7284925,29.6427624 38.0917017,30.2276324 C38.2740436,30.5212962 38.3602996,30.8744299 38.5841721,31.4379202 C37.5557347,31.2953889 36.7386368,31.182101 35.9217847,31.0688132" id="Fill-84" fill="#FFFFFF"></path>
                <path d="M57.606407,83.6143986 C58.0875732,82.7882082 58.5739001,81.9910156 59.4155723,81.9917523 C60.1830299,81.9924901 60.6656706,82.7250521 60.9620375,83.6143986 L57.606407,83.6143986 Z" id="Fill-86" fill="#FFFFFF"></path>
                <path d="M65.9512002,86.7431093 C65.7801626,86.4735285 65.6093707,86.2041934 65.4385788,85.9355955 C65.2009446,85.0315043 65.5732464,84.7575001 66.9078805,84.8553061 C67.199824,86.5447942 66.9415474,87.0547124 65.9512002,86.7431093" id="Fill-88" fill="#FFFFFF"></path>
                <path d="M60.7606751,98.0377856 C61.5578677,98.0370483 61.9196025,98.4572701 61.7903413,99.0160913 C61.7070342,99.3768431 61.2504423,99.8471966 60.9002575,99.9059293 C60.3185822,100.00349 59.9578304,99.5323989 59.9718378,98.9246746 C59.9848622,98.3592183 60.2812291,98.0159144 60.7606751,98.0377856" id="Fill-90" fill="#FFFFFF"></path>
                <path d="M58.6118429,99.2844926 C58.2940963,99.5118055 57.9969921,99.8855817 57.6541796,99.9335017 C57.0921637,100.012385 56.6729249,99.7361695 56.7065918,99.032851 C56.7326407,98.4868085 56.8908996,97.9449436 57.4693803,98.0304624 C57.8871447,98.0921441 58.2429816,98.5718358 58.6263418,98.8652538 L58.6118429,99.2844926 Z" id="Fill-92" fill="#FFFFFF"></path>
                <path d="M53.2425884,85.8286232 C53.1801695,85.9323271 53.141342,86.0682234 53.051154,86.1338369 C52.7056383,86.3852328 52.3436578,86.6142659 51.9878209,86.8514086 C51.8514332,86.44544 51.6577871,86.0478266 51.5963512,85.6307996 C51.5464652,85.2921647 51.4031966,84.6773139 52.0445877,84.8082953 C52.5552432,84.9124907 53.4829257,84.7896188 53.2226831,85.8549178 C53.2226831,85.8546721 53.2425884,85.8286232 53.2425884,85.8286232" id="Fill-94" fill="#FFFFFF"></path>
                <path d="M54.4271714,98.9881994 C53.6476723,98.858201 53.4427221,98.4873737 53.511776,97.9629566 C53.5680514,97.5373285 53.6152341,96.8593216 54.2219754,97.0534591 C54.6741438,97.1982021 54.9909075,97.7666074 55.3681241,98.1465271 C55.0545551,98.4269207 54.7407404,98.7075601 54.4271714,98.9881994" id="Fill-96" fill="#FFFFFF"></path>
                <path d="M64.1450085,96.8143505 C64.5544175,97.391111 64.94515,97.7383468 65.0294401,98.1484931 C65.0697421,98.3443508 64.3691267,98.9292209 64.2772186,98.8749115 C63.8528192,98.6247444 63.477077,98.2423672 63.205776,97.8277975 C63.1573644,97.7535829 63.6835017,97.3036262 64.1450085,96.8143505" id="Fill-98" fill="#FFFFFF"></path>
                <path d="M67.7224226,96.7077714 C67.3538071,96.9245174 66.9689724,97.3299945 66.621245,97.3002595 C66.3236494,97.2751936 65.8358481,96.7348032 65.8559991,96.4521979 C65.8788533,96.128062 66.3614939,95.6021704 66.6578609,95.5930779 C67.0068169,95.5822652 67.3700261,96.0317304 67.7270918,96.2816518 C67.7253716,96.4236917 67.7238971,96.5657315 67.7224226,96.7077714" id="Fill-100" fill="#FFFFFF"></path>
                <path d="M51.5871112,97.680081 C51.2769827,97.0735855 51.0191975,96.7767271 50.9865136,96.4567688 C50.9381021,95.9859238 51.1140546,95.3958931 51.7062969,95.5649648 C52.1171804,95.6824303 52.4128101,96.2036527 52.760046,96.5444993 C52.4526206,96.8420949 52.1451952,97.1396906 51.5871112,97.680081" id="Fill-102" fill="#FFFFFF"></path>
                <path d="M64.4546947,14.2579031 C63.4604156,14.1519876 63.298962,13.5798962 63.2721759,12.9933059 C63.2660323,12.8564267 63.6889573,12.5625172 63.895382,12.5792278 C64.49942,12.627885 65.0867475,12.8775606 65.010567,13.6138088 C64.9827979,13.8843727 64.5844474,14.1166005 64.4546947,14.2579031" id="Fill-104" fill="#FFFFFF"></path>
                <path d="M64.904848,14.9532841 C65.3039358,14.5723814 65.4828373,14.2610241 65.7248948,14.2003254 C66.2036036,14.0801567 66.9034817,14.8272176 66.8091161,15.4064355 C66.7688141,15.6541452 66.2397279,16.0687149 66.1635474,16.0230065 C65.7524181,15.7762798 65.4137833,15.408893 64.904848,14.9532841" id="Fill-106" fill="#FFFFFF"></path>
                <path d="M62.4389327,13.0302412 C61.6102849,12.932681 61.0310669,12.7758965 61.009933,12.0443174 C61.0055096,11.8877787 61.4254856,11.5722437 61.635105,11.5845309 C62.2128485,11.6181978 62.8377747,11.7712962 62.8861863,12.4999263 C62.8992107,12.6970127 62.5389504,12.9189193 62.4389327,13.0302412" id="Fill-108" fill="#FFFFFF"></path>
                <path d="M60.3264951,12.4406283 C59.5175068,12.6448413 58.9203495,12.7045571 58.639956,12.0285161 C58.5799945,11.8840188 58.8601423,11.4394684 59.0604235,11.3760665 C59.6118724,11.2018342 60.2505603,11.1222133 60.5552825,11.7857213 C60.6378524,11.96536 60.380313,12.3010459 60.3264951,12.4406283" id="Fill-110" fill="#FFFFFF"></path>
                <path d="M53.4785023,14.0608412 C53.6411847,14.3702326 53.9350942,14.677658 53.9395176,14.9890153 C53.9493473,15.6689881 53.3875772,15.8835224 52.8216294,15.9262818 C52.6832757,15.9368488 52.3574195,15.5498024 52.3950183,15.4429039 C52.5665474,14.9541196 52.8368655,14.4999853 53.0717965,14.0335637 C53.2072013,14.0426562 53.3428518,14.0517487 53.4785023,14.0608412" id="Fill-112" fill="#FFFFFF"></path>
                <path d="M56.0547812,13.3030167 C55.5945032,13.6104421 55.1482326,13.9456366 54.6584654,14.1953122 C54.5857252,14.2321738 54.1333111,13.7249587 54.1492844,13.7050535 C54.4869363,13.2850775 54.8368753,12.8594493 55.2617662,12.5367878 C55.3566233,12.4647849 55.7444069,12.7788454 55.9972772,12.9152332 C56.0164452,13.0444944 56.0356132,13.1737556 56.0547812,13.3030167" id="Fill-114" fill="#FFFFFF"></path>
                <path d="M57.2062625,13.2810227 C56.7884982,12.8150926 56.5393141,12.536665 56.2898842,12.2584831 C56.6570253,12.0557445 57.0118793,11.7316085 57.3954852,11.6930268 C57.6483555,11.6674694 57.9427565,12.0530413 58.2184809,12.2543054 C57.9348927,12.5420713 57.6510587,12.8298372 57.2062625,13.2810227" id="Fill-116" fill="#FFFFFF"></path>
                <path d="M56.9549159,18.6006124 L54.7604244,17.159817 C54.7604244,17.159817 54.4974787,17.1315564 54.3760813,16.2884097 C54.3760813,16.2884097 55.083086,16.1397348 55.5640064,16.4552697 C56.0449269,16.7708047 56.1677987,16.8474767 56.1677987,16.8474767 L55.7207909,14.9655713 L55.941223,14.8026432 L57.5083307,15.8069978 L57.378578,14.9186343 C57.378578,14.9186343 57.4422257,14.3072239 57.58574,14.099079 C57.58574,14.099079 58.093938,14.2148242 58.2888128,14.6016249 C58.4836875,14.9884255 58.7473705,15.594921 58.7473705,15.594921 L59.0493896,14.9444373 L59.20814,13.0718702 L59.706754,13.0047822 L60.1505672,15.8659763 L61.3940304,13.9489295 L61.7130057,14.0727844 L61.7130057,15.7932361 L61.9469538,15.8689252 L62.4455678,15.2000108 C62.4455678,15.2000108 62.6856594,14.9053641 63.1506065,14.8611302 C63.1506065,14.8611302 63.433949,15.4071728 63.2813422,15.8249371 C63.1287353,16.2429472 62.9323861,16.7469675 62.9323861,16.7469675 L64.1244889,16.2331174 C64.1244889,16.2331174 64.4852406,16.1009073 64.7934033,16.3675392 C64.7934033,16.3675392 65.0162928,16.7280453 64.3186264,17.266224 C63.62096,17.8044027 62.7706867,18.4253971 61.9700537,18.4841299 L62.5079867,17.2890782 L62.3229417,17.1590797 L61.3802687,17.7611518 L61.0996294,16.875983 L60.5412997,17.4822327 L59.1034532,16.6874975 L58.6478443,17.3743512 L57.8007657,16.5796161 L57.6267792,16.7322229 L57.8506517,17.7623806 L56.9340276,17.2158465 L56.7573379,17.3296259 L57.1352917,18.4000855 L56.9549159,18.6006124 Z" id="Fill-118" fill="#FFFFFF"></path>
            </g>
        </g>
    </g>
</svg>